<?xml version="1.0" encoding="utf-8"?>
<!-- Generator: Adobe Illustrator 16.2.0, SVG Export Plug-In . SVG Version: 6.00 Build 0)  -->
<!DOCTYPE svg PUBLIC "-//W3C//DTD SVG 1.1//EN" "http://www.w3.org/Graphics/SVG/1.1/DTD/svg11.dtd">
<svg version="1.1" id="Layer_1" xmlns="http://www.w3.org/2000/svg" xmlns:xlink="http://www.w3.org/1999/xlink" x="0px" y="0px"
	 width="500px" height="500px" viewBox="0 0 500 500" enable-background="new 0 0 500 500" xml:space="preserve">
<ellipse fill="#35495E" cx="249.981" cy="249.031" rx="225.168" ry="232.97"/>
<g id="Layer_2">
</g>
<g id="Layer_3">
</g>
<path fill="#D0D2D3" d="M254.981,320.082"/>
<path fill="#D0D2D3" d="M254.684,320.083"/>
<g>
	<path fill="#FFFFFF" d="M249.72,17.62c-128.07,0-231.89,103.82-231.89,231.9c0,128.07,103.82,231.89,231.89,231.89
		c128.08,0,231.9-103.82,231.9-231.89C481.62,121.44,377.8,17.62,249.72,17.62z M249.72,471.41
		c-122.35,0-221.89-99.54-221.89-221.89c0-122.36,99.54-221.9,221.89-221.9c122.36,0,221.9,99.54,221.9,221.9
		C471.62,371.87,372.08,471.41,249.72,471.41z"/>
	<path fill="none" d="M471.62,249.52c0,122.35-99.54,221.89-221.9,221.89c-122.35,0-221.89-99.54-221.89-221.89
		c0-122.36,99.54-221.9,221.89-221.9C372.08,27.62,471.62,127.16,471.62,249.52z"/>
	<path fill="#7F8C8D" d="M420.77,78.47C375.08,32.78,314.34,7.62,249.72,7.62c-64.61,0-125.35,25.16-171.04,70.85
		C32.99,124.16,7.83,184.9,7.83,249.52c0,64.61,25.16,125.36,70.85,171.04c45.69,45.69,106.43,70.851,171.04,70.851
		c64.62,0,125.36-25.16,171.049-70.851c45.69-45.68,70.851-106.43,70.851-171.04C491.62,184.9,466.46,124.16,420.77,78.47z
		 M249.72,471.41c-122.35,0-221.89-99.54-221.89-221.89c0-122.36,99.54-221.9,221.89-221.9c122.36,0,221.9,99.54,221.9,221.9
		C471.62,371.87,372.08,471.41,249.72,471.41z"/>
</g>
<ellipse fill="#28324E" cx="249.725" cy="425" rx="106.208" ry="9"/>
<g>
	<path fill="#53ABD2" d="M144.978,122.088l7.686,275.827h26.659l3.423-209.646c0-3.537,2.486-6.405,5.554-6.405h8.146
		c3.067,0,5.555,2.868,5.555,6.405l3.422,209.646h26.659l7.686-275.827H144.978z"/>
	<g>
		<path fill="#3D8EBA" d="M199.864,181.317c0-3.69-8.891-6.682-11.958-6.682h-8.146c-3.067,0-5.554,2.991-5.554,6.682l-3.41,216.598
			h8.526l3.423-208.366c0-3.536,2.486-6.405,5.554-6.405h11.595L199.864,181.317z"/>
		<polygon fill="#3D8EBA" points="230.93,122.088 223.565,397.915 232.081,397.915 239.766,122.088 		"/>
	</g>
	<polygon fill="#603813" points="239.507,140.659 145.236,140.659 145.236,125.931 239.766,125.931 	"/>
	<rect x="145.236" y="140.659" fill="#3D8EBA" width="93.971" height="1.497"/>
	<path fill="#754C28" d="M199.894,135.751c0,3.537-2.868,6.404-6.405,6.404h-4.532c-3.537,0-6.404-2.868-6.404-6.404v-5.978
		c0-3.537,2.867-6.405,6.404-6.405h4.532c3.537,0,6.405,2.868,6.405,6.405V135.751z"/>
	<rect x="219.7" y="124.863" fill="#76C2DD" width="3.202" height="17.292"/>
	<rect x="159.815" y="124.863" fill="#76C2DD" width="3.203" height="17.292"/>
	<path fill="#3D8EBA" d="M212.115,153.635c2.71-2.865-2.598,1.297,5.996,9.426c7.87,7.444,12.455,2.597,9.747,5.461
		c-2.71,2.864-8.43,1.853-12.777-2.259C210.735,162.152,209.407,156.499,212.115,153.635z"/>
	<path fill="#3D8EBA" d="M169.615,153.635c-2.708-2.865,2.599,1.297-5.995,9.426c-7.871,7.444-12.455,2.597-9.747,5.461
		c2.709,2.864,8.43,1.853,12.777-2.259C170.996,162.152,172.324,156.499,169.615,153.635z"/>
</g>
<g>
	<path fill="#27B99A" d="M262.606,122.088l7.686,275.827h26.658l3.424-209.647c0-3.537,2.486-6.405,5.553-6.405h8.146
		c3.066,0,5.555,2.868,5.555,6.405l3.422,209.647h26.658l7.686-275.827H262.606z"/>
	<g>
		<path fill="#00A885" d="M317.491,181.317c0-3.69-8.891-6.682-11.957-6.682h-8.146c-3.066,0-5.554,2.991-5.554,6.682
			l-3.409,216.598h8.525l3.424-208.366c0-3.536,2.486-6.405,5.553-6.405h11.596L317.491,181.317z"/>
		<polygon fill="#00A885" points="348.558,122.088 341.192,397.915 349.708,397.915 357.394,122.088 		"/>
	</g>
	<polygon fill="#603813" points="357.136,140.659 262.864,140.659 262.864,125.931 357.394,125.931 	"/>
	<rect x="262.864" y="140.659" fill="#00A885" width="93.971" height="1.497"/>
	<path fill="#754C28" d="M317.522,135.751c0,3.537-2.869,6.404-6.406,6.404h-4.531c-3.537,0-6.404-2.868-6.404-6.404v-5.978
		c0-3.537,2.867-6.405,6.404-6.405h4.531c3.537,0,6.406,2.868,6.406,6.405V135.751z"/>
	<rect x="337.327" y="124.863" fill="#27B99A" width="3.203" height="17.292"/>
	<rect x="277.443" y="124.863" fill="#27B99A" width="3.202" height="17.292"/>
	<path fill="#00A885" d="M329.743,153.634c2.709-2.865-2.598,1.297,5.996,9.426c7.869,7.444,12.455,2.597,9.746,5.461
		c-2.709,2.864-8.43,1.853-12.777-2.259C328.362,162.152,327.034,156.498,329.743,153.634z"/>
	<path fill="#00A885" d="M287.243,153.634c-2.709-2.865,2.599,1.297-5.995,9.426c-7.87,7.444-12.455,2.597-9.747,5.461
		c2.709,2.864,8.43,1.853,12.777-2.259C288.624,162.152,289.952,156.498,287.243,153.634z"/>
</g>
</svg>
