<?xml version="1.0" encoding="utf-8"?>
<!-- Generator: Adobe Illustrator 16.2.0, SVG Export Plug-In . SVG Version: 6.00 Build 0)  -->
<!DOCTYPE svg PUBLIC "-//W3C//DTD SVG 1.1//EN" "http://www.w3.org/Graphics/SVG/1.1/DTD/svg11.dtd">
<svg version="1.1" id="Layer_1" xmlns="http://www.w3.org/2000/svg" xmlns:xlink="http://www.w3.org/1999/xlink" x="0px" y="0px"
	 width="500px" height="500px" viewBox="0 0 500 500" enable-background="new 0 0 500 500" xml:space="preserve">
<circle fill="#81D1EA" cx="254.515" cy="249.517" r="231.799"/>
<ellipse fill="#67BBCE" cx="235.494" cy="323.323" rx="197.505" ry="30.344"/>
<g>
	<polygon fill="#E6B204" points="445.334,181.7 57.118,181.7 86.737,125 417.62,125 	"/>
	<rect x="74.044" y="181.7" fill="#D0D2D3" width="357.606" height="137.092"/>
	<polygon fill="#F0F7EF" points="250.751,156.446 198.963,175.849 198.963,325.03 302.409,325.03 302.409,175.849 	"/>
	<rect x="205.31" y="174.947" fill="#E3E5E2" width="41.324" height="37.678"/>
	<rect x="255.278" y="174.677" fill="#E3E5E2" width="41.324" height="37.678"/>
	<rect x="208.011" y="177.243" fill="#C3E8F1" width="16.341" height="33.087"/>
	<rect x="227.323" y="177.243" fill="#90D8D5" width="16.341" height="33.087"/>
	<rect x="258.114" y="177.243" fill="#C3E8F1" width="16.341" height="33.087"/>
	<rect x="277.426" y="177.243" fill="#90D8D5" width="16.341" height="33.087"/>
	<polygon fill="#E6E7E8" points="139.947,181.7 86.737,206.548 86.737,325.03 193.156,325.03 193.156,206.548 	"/>
	<polygon fill="#F2C510" points="74.044,208.62 86.288,208.62 139.498,181.61 192.706,206.459 203.689,206.099 138.867,175.849 	"/>
	<g>
		<rect x="160.794" y="274.136" fill="#F1F1F2" width="26.482" height="44.656"/>
		<rect x="162.465" y="276.117" fill="#C2EBED" width="10.825" height="40.693"/>
		<rect x="174.963" y="276.117" fill="#9BD7D8" width="10.825" height="40.693"/>
		<path fill="#E5B608" d="M189.358,273.392c0,0.834-0.666,1.507-1.487,1.507h-27.673c-0.821,0-1.488-0.673-1.488-1.507l0,0
			c0-0.833,0.667-1.507,1.488-1.507h27.673C188.693,271.885,189.358,272.559,189.358,273.392L189.358,273.392z"/>
		<path fill="#EEC300" d="M189.359,272.698c0,0.669-0.667,1.211-1.487,1.211h-27.673c-0.821,0-1.487-0.542-1.487-1.211l0,0
			c0-0.67,0.667-1.211,1.487-1.211h27.673C188.693,271.487,189.359,272.028,189.359,272.698L189.359,272.698z"/>
	</g>
	<g>
		<rect x="310.884" y="195.268" fill="#F1F1F2" width="26.482" height="44.656"/>
		<rect x="312.555" y="197.25" fill="#C2EBED" width="10.825" height="40.693"/>
		<rect x="325.053" y="197.25" fill="#9BD7D8" width="10.825" height="40.693"/>
		<path fill="#E5B608" d="M339.448,194.524c0,0.833-0.667,1.507-1.487,1.507h-27.674c-0.821,0-1.488-0.673-1.488-1.507l0,0
			c0-0.833,0.667-1.506,1.488-1.506h27.674C338.781,193.018,339.448,193.69,339.448,194.524L339.448,194.524z"/>
		<path fill="#EEC300" d="M339.448,193.831c0,0.669-0.667,1.21-1.487,1.21h-27.672c-0.821,0-1.488-0.541-1.488-1.21l0,0
			c0-0.67,0.667-1.211,1.488-1.211h27.672C338.781,192.62,339.448,193.161,339.448,193.831L339.448,193.831z"/>
	</g>
	<g>
		<rect x="354.515" y="195.268" fill="#F1F1F2" width="26.482" height="44.656"/>
		<rect x="356.186" y="197.25" fill="#C2EBED" width="10.825" height="40.693"/>
		<rect x="368.684" y="197.25" fill="#9BD7D8" width="10.825" height="40.693"/>
		<path fill="#E5B608" d="M383.079,194.524c0,0.833-0.664,1.507-1.487,1.507H353.92c-0.821,0-1.488-0.673-1.488-1.507l0,0
			c0-0.833,0.667-1.506,1.488-1.506h27.672C382.415,193.018,383.079,193.69,383.079,194.524L383.079,194.524z"/>
		<path fill="#EEC300" d="M383.081,193.831c0,0.669-0.666,1.21-1.487,1.21H353.92c-0.821,0-1.488-0.541-1.488-1.21l0,0
			c0-0.67,0.667-1.211,1.488-1.211h27.674C382.415,192.62,383.081,193.161,383.081,193.831L383.081,193.831z"/>
	</g>
	<g>
		<rect x="398.038" y="195.666" fill="#F1F1F2" width="26.481" height="44.657"/>
		<rect x="399.709" y="197.647" fill="#C2EBED" width="10.825" height="40.694"/>
		<rect x="412.207" y="197.647" fill="#9BD7D8" width="10.825" height="40.694"/>
		<path fill="#E5B608" d="M426.603,194.922c0,0.833-0.667,1.507-1.487,1.507H397.44c-0.82,0-1.487-0.673-1.487-1.507l0,0
			c0-0.833,0.667-1.507,1.487-1.507h27.675C425.936,193.415,426.603,194.088,426.603,194.922L426.603,194.922z"/>
		<path fill="#EEC300" d="M426.603,194.229c0,0.669-0.667,1.21-1.487,1.21h-27.673c-0.82,0-1.487-0.542-1.487-1.21l0,0
			c0-0.67,0.667-1.211,1.487-1.211h27.673C425.936,193.018,426.603,193.559,426.603,194.229L426.603,194.229z"/>
	</g>
	<g>
		<rect x="126.693" y="274.136" fill="#F1F1F2" width="26.482" height="44.656"/>
		<rect x="128.365" y="276.117" fill="#C2EBED" width="10.824" height="40.693"/>
		<rect x="140.862" y="276.117" fill="#9BD7D8" width="10.826" height="40.693"/>
		<path fill="#E5B608" d="M155.258,273.392c0,0.834-0.667,1.507-1.487,1.507h-27.673c-0.822,0-1.487-0.673-1.487-1.507l0,0
			c0-0.833,0.666-1.507,1.487-1.507h27.673C154.591,271.885,155.258,272.559,155.258,273.392L155.258,273.392z"/>
		<path fill="#EEC300" d="M155.259,272.698c0,0.669-0.667,1.211-1.488,1.211h-27.673c-0.822,0-1.487-0.542-1.487-1.211l0,0
			c0-0.67,0.666-1.211,1.487-1.211h27.673C154.592,271.487,155.259,272.028,155.259,272.698L155.259,272.698z"/>
	</g>
	<g>
		<rect x="92.737" y="274.136" fill="#F1F1F2" width="26.482" height="44.656"/>
		<rect x="94.409" y="276.117" fill="#C2EBED" width="10.824" height="40.693"/>
		<rect x="106.906" y="276.117" fill="#9BD7D8" width="10.826" height="40.693"/>
		<path fill="#E5B608" d="M121.302,273.392c0,0.834-0.667,1.507-1.488,1.507H92.141c-0.822,0-1.487-0.673-1.487-1.507l0,0
			c0-0.833,0.666-1.507,1.487-1.507h27.673C120.635,271.885,121.302,272.559,121.302,273.392L121.302,273.392z"/>
		<path fill="#EEC300" d="M121.303,272.698c0,0.669-0.667,1.211-1.488,1.211H92.143c-0.822,0-1.488-0.542-1.488-1.211l0,0
			c0-0.67,0.666-1.211,1.488-1.211h27.673C120.636,271.487,121.303,272.028,121.303,272.698L121.303,272.698z"/>
	</g>
	<path fill="#FFFFFF" d="M97.453,242.471h84.989v-28.811c0,0-19.447-9.362-42.494-9.362c-23.048,0-42.495,9.362-42.495,9.362
		V242.471z"/>
	<path fill="#BAEFE7" d="M101.323,238.149H178.3v-22.287c0,0-17.614-7.243-38.488-7.243s-38.489,7.243-38.489,7.243V238.149z"/>
	<rect x="214.853" y="317.197" fill="#929497" width="71.486" height="5.402"/>
	<rect x="210.015" y="322.375" fill="#A6A8AB" width="81.345" height="5.401"/>
	<rect x="205.445" y="327.776" fill="#BBBDBF" width="90.347" height="5.402"/>
	<rect x="221.516" y="235.989" fill="#D0D2D3" width="58.206" height="81.208"/>
	<rect x="221.516" y="312.561" fill="#808184" width="58.206" height="4.637"/>
	<rect x="225.972" y="262.053" fill="#E0AE00" width="49.428" height="51.184"/>
	<rect x="232.049" y="264.889" fill="#BDEEF2" width="16.341" height="28.09"/>
	<rect x="252.712" y="264.889" fill="#A0D8D5" width="16.341" height="28.09"/>
	<path fill="#FFFFFF" d="M225.972,259.284H275.4v-13.819c0,0-10.266-6.235-25.078-6.235s-24.351,5.899-24.351,5.899V259.284z"/>
	<path fill="#BAEFE7" d="M227.998,257.326h46.187v-11.074c0,0-9.593-4.997-23.433-4.997s-22.753,4.727-22.753,4.727V257.326z"/>
	<polygon fill="#E8AF06" points="210.172,229.508 216.294,223.385 284.719,223.385 290.84,229.508 	"/>
	<polygon fill="#F1C40F" points="187.484,175.849 198.963,175.849 251.497,156.446 302.409,175.849 312.403,175.849 
		251.361,151.314 	"/>
	<polygon fill="#EEC300" points="86.737,253.365 193.156,253.365 196.937,264.889 83.227,264.889 	"/>
	<polygon fill="#E8AF06" points="439.213,259.284 302.409,259.284 302.409,247.063 431.65,247.063 	"/>
	<rect x="312.403" y="273.392" fill="#9EA6A9" width="108.804" height="45.4"/>
	<rect x="312.313" y="279.385" fill="#BBBDBF" width="108.804" height="1.08"/>
	<rect x="312.492" y="287.037" fill="#BBBDBF" width="108.804" height="1.08"/>
	<rect x="312.133" y="294.69" fill="#BBBDBF" width="108.804" height="1.08"/>
	<rect x="312.673" y="302.344" fill="#BBBDBF" width="108.804" height="1.08"/>
	<rect x="312.673" y="309.996" fill="#BBBDBF" width="108.804" height="1.08"/>
</g>
<g id="Layer_2">
</g>
<g id="Layer_3">
</g>
<path fill="#D35728" d="M200.508,496.385"/>
<ellipse fill="#67BBCE" cx="371.274" cy="363.228" rx="54.25" ry="11.771"/>
<g>
	<g>
		<polygon fill="#532913" points="392.612,270.17 399.423,268.281 405.254,356.592 392.612,356.592 		"/>
		<polygon fill="#723C19" points="399.423,268.281 405.813,265.969 412.201,356.947 399.559,356.947 		"/>
	</g>
	<g>
		<polygon fill="#532913" points="422.577,269.953 426.698,271 402.53,314.018 395.96,310.432 		"/>
		<polygon fill="#723C19" points="426.698,271 430.732,271.73 406.033,316.156 399.462,312.568 		"/>
	</g>
	<g>
		<polygon fill="#532913" points="382.036,271.838 379.387,272.555 394.798,301.801 399.023,299.354 		"/>
		<polygon fill="#723C19" points="379.387,272.555 376.796,273.057 392.547,303.26 396.771,300.811 		"/>
	</g>
	<g>
		<path fill="#0B8040" d="M399.529,258.359c0-13.115-11.688-27.657-26.103-27.657c-14.416,0-31.966,13.563-31.966,26.678
			c0,13.117,14.618,24.574,29.034,24.574S399.529,271.477,399.529,258.359z"/>
		<ellipse fill="#21AE5E" cx="367.267" cy="253.781" rx="26.102" ry="23.75"/>
	</g>
	<g>
		<path fill="#0B8040" d="M474.881,266.775c0-10.627-9.575-22.409-21.388-22.409c-11.812,0-26.188,10.989-26.188,21.616
			c0,10.629,11.978,19.912,23.787,19.912C462.903,285.895,474.881,277.404,474.881,266.775z"/>
		<path fill="#21AE5E" d="M469.833,263.068c0-10.629-9.576-19.245-21.387-19.245s-21.386,8.616-21.386,19.245
			c0,10.625,9.575,19.242,21.386,19.242S469.833,273.693,469.833,263.068z"/>
	</g>
	<g>
		<path fill="#0B8040" d="M443.266,278.883c0-7.494-6.394-15.801-14.278-15.801s-17.484,7.748-17.484,15.238
			c0,7.496,7.997,14.043,15.883,14.043C435.27,292.363,443.266,286.377,443.266,278.883z"/>
		<path fill="#21AE5E" d="M439.896,276.268c0-7.494-6.392-13.568-14.277-13.568c-7.885,0-14.277,6.074-14.277,13.568
			c0,7.49,6.393,13.566,14.277,13.566C433.504,289.834,439.896,283.758,439.896,276.268z"/>
	</g>
	<g>
		<path fill="#0B8040" d="M458.855,235.824c0-21.816-19.034-46.002-42.513-46.002c-23.476,0-52.057,22.557-52.057,44.372
			c0,21.82,23.809,40.876,47.284,40.876S458.855,257.641,458.855,235.824z"/>
		<path fill="#21AE5E" d="M448.822,228.211c0-21.818-19.034-39.505-42.511-39.505c-23.476,0-42.509,17.687-42.509,39.505
			c0,21.813,19.033,39.5,42.509,39.5C429.788,267.711,448.822,250.024,448.822,228.211z"/>
	</g>
</g>
<path fill="#87C440" d="M157.071,310.405c0.451,0,0.9,0.018,1.347,0.048c3.78-3.225,8.384-5.12,13.354-5.12
	c5.103,0,9.82,1.998,13.655,5.383c11.21,2.027,19.811,13.775,19.811,27.965h-24.901h-21.629h-24.901
	C133.806,323.064,144.222,310.405,157.071,310.405z"/>
<path fill="#0C9247" d="M127.076,320.837c0.252,0,0.504,0.011,0.754,0.03c2.113-2.036,4.688-3.231,7.467-3.231
	c2.854,0,5.491,1.261,7.636,3.396c6.27,1.28,11.078,8.694,11.078,17.648h-13.926h-12.093h-13.926
	C114.066,328.826,119.89,320.837,127.076,320.837z"/>
<path fill="#87C440" d="M87.132,320.837c0.252,0,0.504,0.011,0.752,0.03c2.115-2.036,4.689-3.231,7.469-3.231
	c2.852,0,5.49,1.261,7.635,3.396c6.27,1.28,11.078,8.694,11.078,17.648h-13.924H88.046H74.123
	C74.123,328.826,79.947,320.837,87.132,320.837z"/>
<g>
	<path fill="#FFFFFF" d="M249.72,17.62c-128.07,0-231.89,103.82-231.89,231.9c0,128.07,103.82,231.89,231.89,231.89
		c128.08,0,231.9-103.82,231.9-231.89C481.62,121.44,377.8,17.62,249.72,17.62z M249.72,471.41
		c-122.35,0-221.89-99.54-221.89-221.89c0-122.36,99.54-221.9,221.89-221.9c122.36,0,221.9,99.54,221.9,221.9
		C471.62,371.87,372.08,471.41,249.72,471.41z"/>
	<path fill="none" d="M471.62,249.52c0,122.35-99.54,221.89-221.9,221.89c-122.35,0-221.89-99.54-221.89-221.89
		c0-122.36,99.54-221.9,221.89-221.9C372.08,27.62,471.62,127.16,471.62,249.52z"/>
	<path fill="#7F8C8D" d="M420.77,78.47C375.08,32.78,314.34,7.62,249.72,7.62c-64.61,0-125.35,25.16-171.04,70.85
		C32.99,124.16,7.83,184.9,7.83,249.52c0,64.61,25.16,125.36,70.85,171.04c45.69,45.69,106.43,70.851,171.04,70.851
		c64.62,0,125.36-25.16,171.049-70.851c45.69-45.68,70.851-106.43,70.851-171.04C491.62,184.9,466.46,124.16,420.77,78.47z
		 M249.72,471.41c-122.35,0-221.89-99.54-221.89-221.89c0-122.36,99.54-221.9,221.89-221.9c122.36,0,221.9,99.54,221.9,221.9
		C471.62,361.188,367.179,471.41,249.72,471.41z"/>
</g>
</svg>
