<?xml version="1.0" encoding="utf-8"?>
<!-- Generator: Adobe Illustrator 16.2.0, SVG Export Plug-In . SVG Version: 6.00 Build 0)  -->
<!DOCTYPE svg PUBLIC "-//W3C//DTD SVG 1.1//EN" "http://www.w3.org/Graphics/SVG/1.1/DTD/svg11.dtd">
<svg version="1.1" id="Layer_1" xmlns="http://www.w3.org/2000/svg" xmlns:xlink="http://www.w3.org/1999/xlink" x="0px" y="0px"
	 width="500px" height="500px" viewBox="0 0 500 500" enable-background="new 0 0 500 500" xml:space="preserve">
<circle fill="#35495E" cx="249.875" cy="249.516" r="231.895"/>
<polygon fill="#22384C" points="294,162.105 400.42,162.105 471.62,242.335 371.386,243.021 "/>
<polygon fill="#22384C" points="104.79,164.774 239.292,97.83 377.57,241.224 241.651,305.305 "/>
<g id="Layer_2">
</g>
<g id="Layer_3">
</g>
<path fill="#D0D2D3" d="M254.981,320.082"/>
<path fill="#D0D2D3" d="M254.684,320.083"/>
<path fill="#1F3549" d="M31.667,328.583C63.996,417.724,149.42,481.41,249.724,481.41c100.305,0,185.73-63.687,218.059-152.827
	H31.667z"/>
<path fill="#D0D2D3" d="M355.295,316.538"/>
<path fill="#D0D2D3" d="M355.165,316.539"/>
<rect x="52.225" y="242.76" transform="matrix(1 0.0022 -0.0022 1 0.6467 -0.5364)" fill="#8A5D3B" width="395" height="115.241"/>
<path fill="#C3996B" d="M458.499,242.76c0,3.734-2.656,6.76-5.933,6.76H51.396c-3.276,0-5.933-3.026-5.933-6.76l0,0
	c0-3.733,2.656-6.76,5.933-6.76h401.17C455.843,236,458.499,239.026,458.499,242.76L458.499,242.76z"/>
<rect x="63" y="255.126" fill="#C3996B" stroke="#754C28" stroke-width="3" stroke-miterlimit="10" width="83" height="96"/>
<g>
	<circle fill="#A87C4F" cx="130.5" cy="303.126" r="5.75"/>
	<path fill="#8A5D3B" d="M131.454,297.461c0.957,1.027,1.546,2.401,1.546,3.915c0,3.175-2.574,5.75-5.75,5.75
		c-0.326,0-0.643-0.033-0.953-0.085c1.05,1.126,2.542,1.835,4.203,1.835c3.175,0,5.75-2.574,5.75-5.75
		C136.25,300.275,134.174,297.916,131.454,297.461z"/>
</g>
<rect x="157" y="255.084" fill="#C3996B" stroke="#754C28" stroke-width="3" stroke-miterlimit="10" width="83" height="96"/>
<g>
	<circle fill="#A87C4F" cx="224.5" cy="303.084" r="5.75"/>
	<path fill="#8A5D3B" d="M225.454,297.419c0.957,1.027,1.546,2.401,1.546,3.915c0,3.175-2.574,5.75-5.75,5.75
		c-0.326,0-0.643-0.033-0.953-0.085c1.05,1.126,2.542,1.835,4.203,1.835c3.175,0,5.75-2.574,5.75-5.75
		C230.25,300.233,228.174,297.874,225.454,297.419z"/>
</g>
<rect x="261.009" y="255.04" fill="#C3996B" stroke="#754C28" stroke-width="3" stroke-miterlimit="10" width="83" height="96"/>
<g>
	<circle fill="#A87C4F" cx="276.509" cy="303.04" r="5.75"/>
	<path fill="#8A5D3B" d="M275.555,297.375c-0.956,1.027-1.546,2.401-1.546,3.915c0,3.175,2.574,5.75,5.75,5.75
		c0.325,0,0.643-0.033,0.953-0.085c-1.051,1.126-2.543,1.835-4.203,1.835c-3.176,0-5.75-2.574-5.75-5.75
		C270.759,300.189,272.835,297.83,275.555,297.375z"/>
</g>
<rect x="356.659" y="254.951" fill="#C3996B" stroke="#754C28" stroke-width="3" stroke-miterlimit="10" width="83" height="96"/>
<g>
	<circle fill="#A87C4F" cx="372.159" cy="302.951" r="5.75"/>
	<path fill="#8A5D3B" d="M371.205,297.286c-0.956,1.027-1.546,2.401-1.546,3.915c0,3.175,2.574,5.75,5.75,5.75
		c0.325,0,0.643-0.033,0.953-0.085c-1.051,1.126-2.543,1.835-4.203,1.835c-3.176,0-5.75-2.574-5.75-5.75
		C366.409,300.101,368.485,297.741,371.205,297.286z"/>
</g>
<path fill="#231F20" d="M181.191,236L181.191,236c0-6.075,5.883-11,13.141-11h110.784c7.258,0,13.141,4.925,13.141,11l0,0"/>
<polygon fill="#404041" points="233.833,220.667 245.167,220.667 245.167,216 227.833,216 227.833,225 233.833,225 "/>
<polygon fill="#404041" points="264.759,220.667 253.425,220.667 253.425,216 270.759,216 270.759,225 264.759,225 "/>
<g>
	<rect x="358.957" y="233.46" fill="#D1D6D8" width="14.906" height="2.213"/>
	<path fill="#F0EFEF" d="M392.104,208.214c0,14.55-11.504,26.346-25.695,26.346c-14.19,0-25.695-11.795-25.695-26.346"/>
	<rect x="340.714" y="210.12" fill="#EB6A56" width="51.391" height="2.271"/>
</g>
<g>
	<rect x="418.663" y="233.903" fill="#D1D6D8" width="14.906" height="2.213"/>
	<path fill="#F0EFEF" d="M451.811,208.657c0,14.55-11.504,26.346-25.695,26.346c-14.19,0-25.695-11.795-25.695-26.346"/>
	<rect x="400.42" y="210.563" fill="#EB6A56" width="51.391" height="2.271"/>
</g>
<g>
	<polygon fill="#FBA026" points="231.8,170.009 112.283,170.009 104.79,164.774 239.292,164.774 	"/>
	<path fill="#F7DA64" d="M106.663,165.899h130.756c1.034,0,1.873-1.422,1.873-3.177v-32.446V97.83c0-1.753-0.839-3.176-1.873-3.176
		H106.663c-1.034,0-1.874,1.423-1.874,3.176v32.447v32.446C104.79,164.477,105.629,165.899,106.663,165.899z"/>
	<path fill="#FAC51C" d="M104.79,144.888L104.79,144.888v19.137c0,1.035,0.839,1.874,1.874,1.874h130.756
		c1.034,0,1.873-0.839,1.873-1.874v-19.137v0H104.79z"/>
	<rect x="110.878" y="98.9" fill="#3B2314" width="122.326" height="61.944"/>
	<rect x="109.105" y="127.998" fill="#F7DA64" width="124.849" height="5.995"/>
	<g>
		<rect x="176.185" y="116.39" fill="#E6E7E8" width="1.482" height="11.062"/>
		<path fill="#E6E7E8" d="M171.405,108.736v8.562c0,1.891,2.361,3.424,5.275,3.424h0.279c2.914,0,5.277-1.534,5.277-3.424v-8.562"/>
		<path fill="#E6E7E8" d="M172.676,127.268c0,0.152,1.917,0.276,4.28,0.276c2.367,0,4.281-0.124,4.281-0.276
			s-1.914-0.277-4.281-0.277C174.593,126.99,172.676,127.115,172.676,127.268z"/>
	</g>
	<g>
		<rect x="144.756" y="153.084" fill="#E6E7E8" width="0.857" height="6.395"/>
		<path fill="#E6E7E8" d="M141.992,148.66v4.949c0,1.093,1.366,1.98,3.052,1.98h0.16c1.684,0,3.051-0.887,3.051-1.98v-4.949"/>
		<ellipse fill="#E6E7E8" cx="145.202" cy="159.372" rx="2.475" ry="0.16"/>
	</g>
	<g>
		<rect x="155.7" y="153.248" fill="#E6E7E8" width="0.855" height="6.395"/>
		<path fill="#E6E7E8" d="M152.937,148.824v4.949c0,1.093,1.365,1.98,3.051,1.98h0.16c1.685,0,3.051-0.887,3.051-1.98v-4.949"/>
		<ellipse fill="#E6E7E8" cx="156.146" cy="159.536" rx="2.475" ry="0.16"/>
	</g>
	<g>
		<rect x="166.935" y="153.569" fill="#E6E7E8" width="0.856" height="6.395"/>
		<path fill="#E6E7E8" d="M164.171,149.145v4.949c0,1.093,1.367,1.98,3.051,1.98h0.161c1.685,0,3.051-0.887,3.051-1.98v-4.949"/>
		<ellipse fill="#E6E7E8" cx="167.381" cy="159.857" rx="2.474" ry="0.16"/>
	</g>
	<g>
		<rect x="177.55" y="153.622" fill="#E6E7E8" width="0.857" height="6.395"/>
		<path fill="#E6E7E8" d="M174.788,149.198v4.949c0,1.093,1.365,1.98,3.049,1.98h0.162c1.685,0,3.049-0.887,3.049-1.98v-4.949"/>
		<ellipse fill="#E6E7E8" cx="177.997" cy="159.911" rx="2.475" ry="0.16"/>
	</g>
	<g>
		<rect x="188.268" y="153.622" fill="#E6E7E8" width="0.856" height="6.395"/>
		<path fill="#E6E7E8" d="M185.504,149.198v4.949c0,1.093,1.365,1.98,3.052,1.98h0.16c1.685,0,3.051-0.887,3.051-1.98v-4.949"/>
		<ellipse fill="#E6E7E8" cx="188.714" cy="159.911" rx="2.474" ry="0.16"/>
	</g>
	<g>
		<rect x="199.689" y="153.517" fill="#E6E7E8" width="0.856" height="6.395"/>
		<path fill="#E6E7E8" d="M196.927,149.092v4.949c0,1.093,1.366,1.979,3.051,1.979h0.16c1.687,0,3.051-0.886,3.051-1.979v-4.949"/>
		<ellipse fill="#E6E7E8" cx="200.137" cy="159.805" rx="2.475" ry="0.16"/>
	</g>
	<g>
		<rect x="191.432" y="116.39" fill="#E6E7E8" width="1.482" height="11.062"/>
		<path fill="#E6E7E8" d="M186.653,108.736v8.562c0,1.891,2.361,3.424,5.275,3.424h0.278c2.914,0,5.277-1.534,5.277-3.424v-8.562"/>
		<ellipse fill="#E6E7E8" cx="192.205" cy="127.268" rx="4.28" ry="0.276"/>
	</g>
	<g>
		<rect x="206.294" y="116.311" fill="#E6E7E8" width="1.482" height="11.062"/>
		<path fill="#E6E7E8" d="M201.514,108.658v8.562c0,1.89,2.361,3.425,5.276,3.425h0.279c2.914,0,5.277-1.535,5.277-3.425v-8.562"/>
		<ellipse fill="#E6E7E8" cx="207.066" cy="127.19" rx="4.281" ry="0.276"/>
	</g>
	<g>
		<rect x="221.529" y="116.154" fill="#E6E7E8" width="1.483" height="11.062"/>
		<path fill="#E6E7E8" d="M216.75,108.501v8.562c0,1.89,2.362,3.424,5.277,3.424h0.277c2.915,0,5.277-1.534,5.277-3.424v-8.562"/>
		<ellipse fill="#E6E7E8" cx="222.303" cy="127.033" rx="4.28" ry="0.276"/>
	</g>
	<g>
		<polygon fill="#F1F1F2" points="124.19,128.052 160.298,128.052 167.677,123.963 116.809,123.963 		"/>
		<polygon fill="#F1F1F2" points="123.94,123.432 160.049,123.432 167.427,119.343 116.559,119.343 		"/>
		<polygon fill="#F1F1F2" points="123.94,118.686 160.049,118.686 167.427,114.597 116.559,114.597 		"/>
		<polygon fill="#F1F1F2" points="123.19,113.854 159.3,113.854 166.677,109.765 115.809,109.765 		"/>
	</g>
	<g>
		<polygon fill="#F1F1F2" points="119.473,160.274 135.258,160.274 138.482,158.06 116.246,158.06 		"/>
		<polygon fill="#F1F1F2" points="119.364,157.772 135.148,157.772 138.373,155.558 116.137,155.558 		"/>
		<polygon fill="#F1F1F2" points="119.364,155.203 135.148,155.203 138.373,152.989 116.137,152.989 		"/>
		<polygon fill="#F1F1F2" points="119.036,152.587 134.82,152.587 138.046,150.373 115.809,150.373 		"/>
	</g>
	<g>
		<polygon fill="#F1F1F2" points="119.223,149.783 135.008,149.783 138.232,147.569 115.996,147.569 		"/>
		<polygon fill="#F1F1F2" points="119.114,147.281 134.898,147.281 138.124,145.067 115.887,145.067 		"/>
		<polygon fill="#F1F1F2" points="119.114,144.712 134.898,144.712 138.124,142.499 115.887,142.499 		"/>
		<polygon fill="#F1F1F2" points="118.786,142.096 134.571,142.096 137.796,139.882 115.56,139.882 		"/>
	</g>
	<path fill="#E6E7E8" d="M216.38,158.768c0,0.772-0.678,1.398-1.515,1.398h-5.262c-0.836,0-1.513-0.626-1.513-1.398l-1.211-13.52
		c0-0.772,0.679-0.838,1.515-0.838h7.682c0.837,0,1.515,0.066,1.515,0.838L216.38,158.768z"/>
	<path fill="#E6E7E8" d="M229.991,158.604c0,0.772-0.677,1.398-1.513,1.398h-5.262c-0.835,0-1.513-0.626-1.513-1.398l-1.211-13.52
		c0-0.772,0.678-0.838,1.514-0.838h7.683c0.836,0,1.513,0.066,1.513,0.838L229.991,158.604z"/>
</g>
<g>
	<path fill="#F9C61D" d="M313.174,149.27c0,5.678-4.602,6.939-10.279,6.939h-0.771c-5.678,0-10.28-1.262-10.28-6.939v-11.88
		c0-5.678,4.603-10.281,10.28-10.281h0.771c5.678,0,10.279,4.603,10.279,10.281V149.27z"/>
	<path fill="#F0EFEF" d="M293.898,130.309L293.898,130.309c0-2.507,1.089-4.54,2.432-4.54h12.357c1.342,0,2.431,2.032,2.431,4.54
		l0,0"/>
</g>
<g>
	<path fill="#F9C61D" d="M337.507,149.516c0,5.678-4.602,6.939-10.279,6.939h-0.771c-5.678,0-10.28-1.262-10.28-6.939v-11.88
		c0-5.678,4.603-10.281,10.28-10.281h0.771c5.678,0,10.279,4.603,10.279,10.281V149.516z"/>
	<path fill="#F0EFEF" d="M318.231,130.555L318.231,130.555c0-2.507,1.089-4.54,2.432-4.54h12.357c1.342,0,2.431,2.032,2.431,4.54
		l0,0"/>
</g>
<g>
	<path fill="#F9C61D" d="M361.84,149.762c0,5.678-4.602,6.939-10.279,6.939h-0.771c-5.678,0-10.28-1.262-10.28-6.939v-11.88
		c0-5.678,4.603-10.281,10.28-10.281h0.771c5.678,0,10.279,4.603,10.279,10.281V149.762z"/>
	<path fill="#F0EFEF" d="M342.564,130.801L342.564,130.801c0-2.507,1.089-4.54,2.432-4.54h12.357c1.342,0,2.431,2.032,2.431,4.54
		l0,0"/>
</g>
<g>
	<path fill="#F9C61D" d="M385.41,149.505c0,5.678-4.602,6.939-10.279,6.939h-0.771c-5.678,0-10.28-1.262-10.28-6.939v-11.88
		c0-5.678,4.603-10.281,10.28-10.281h0.771c5.678,0,10.279,4.603,10.279,10.281V149.505z"/>
	<path fill="#F0EFEF" d="M366.135,130.544L366.135,130.544c0-2.507,1.089-4.54,2.432-4.54h12.357c1.342,0,2.431,2.032,2.431,4.54
		l0,0"/>
</g>
<path fill="#C3996B" d="M400.42,162.105c0,2.919-2.366,5.286-5.286,5.286H290.113c-2.919,0-5.285-2.367-5.285-5.286l0,0
	c0-2.919,2.366-5.286,5.285-5.286h105.021C398.054,156.819,400.42,159.186,400.42,162.105L400.42,162.105z"/>
<g>
	<path fill="#D1D6D8" d="M247.885,190.802c0.652,0.582,0.743,1.623,0.206,2.327l0,0c-0.538,0.705-1.501,0.803-2.153,0.222
		l-35.919-32.089c-0.651-0.582-0.742-1.623-0.205-2.327l0,0c0.538-0.705,1.501-0.803,2.153-0.222L247.885,190.802z"/>
	<g>
		<path fill="#1EA285" d="M284.828,187.497v17.676c0,6.102-3.986,11.047-8.904,11.047h-52.547c-4.917,0-8.903-4.946-8.903-11.047
			v-17.676"/>
		<path fill="#D1D6D8" d="M322.287,198.387h-37.459v6.786c0,0.053-0.006,0.104-0.008,0.156h37.467c3.738,0,6.77-1.479,6.77-3.306
			v-0.331C329.057,199.867,326.025,198.387,322.287,198.387z"/>
	</g>
</g>
<rect x="64.666" y="174.333" fill="#BBBDBF" width="57.598" height="8.383"/>
<path fill="#A87C4F" d="M66.648,221.875c-0.027,1.487,1.435,4.493,3.338,5.334c1.645,0.727,4.574,0.638,5.544-0.096
	c1.821-1.38,3.006-3.538,3.033-5.025l0.164-9.171c0.018-0.969-0.484-1.57-1.247-1.879c-1.39-1.172-3.402-1.708-3.949-3.588
	l-0.141-1.125l0,0c0-0.006,0-0.012,0.079-4.421l-1.11-0.02l-0.099,5.549c-0.645,1.885-2.744,2.309-4.191,3.459
	c-0.727,0.283-1.218,0.843-1.254,1.753c0,0.002-0.001,0.003-0.002,0.005h0.001c-0.001,0.018-0.002,0.036-0.002,0.054L66.648,221.875
	z M75.442,212.105c0.005-0.337,0.371-0.605,0.814-0.597c0.444,0.008,0.799,0.289,0.793,0.626l-0.225,12.61
	c-0.006,0.338-0.371,0.605-0.815,0.597c-0.444-0.008-0.799-0.288-0.793-0.626L75.442,212.105z M71.979,212.088
	c0.006-0.362,0.372-0.649,0.815-0.642s0.798,0.308,0.792,0.671l-0.242,13.53c-0.006,0.363-0.372,0.65-0.815,0.643
	c-0.444-0.008-0.798-0.309-0.792-0.671L71.979,212.088z M68.517,211.982c0.006-0.338,0.371-0.605,0.814-0.598
	s0.799,0.289,0.793,0.626l-0.225,12.61c-0.006,0.338-0.371,0.605-0.814,0.597c-0.444-0.007-0.799-0.288-0.793-0.625L68.517,211.982z
	"/>
<path fill="#C3996B" d="M73.402,177.416c-0.911-0.016-1.663,0.709-1.679,1.62l-0.392,21.911c-0.016,0.911,0.709,1.663,1.62,1.679
	c0.911,0.017,1.663-0.709,1.679-1.62l0.391-21.912C75.038,178.184,74.313,177.432,73.402,177.416z M74.083,181.438
	c0,0.402-0.327,0.729-0.729,0.729c-0.403,0-0.729-0.327-0.729-0.729v-2.184c0-0.402,0.327-0.729,0.729-0.729
	c0.402,0,0.729,0.327,0.729,0.729V181.438z"/>
<ellipse fill="#404041" cx="73.354" cy="179.408" rx="0.938" ry="0.883"/>
<ellipse fill="#404041" cx="99.98" cy="178.924" rx="0.938" ry="0.883"/>
<ellipse fill="#404041" cx="107.772" cy="178.823" rx="0.938" ry="0.883"/>
<ellipse fill="#404041" cx="82.771" cy="179.033" rx="0.938" ry="0.883"/>
<g>
	<path fill="#C3996B" d="M91.724,177.351c-0.818-0.014-1.494,0.637-1.508,1.456l-0.352,19.685c-0.014,0.819,0.637,1.494,1.456,1.508
		c0.818,0.015,1.494-0.637,1.508-1.455l0.352-19.685C93.194,178.042,92.542,177.366,91.724,177.351z M92.336,180.964
		c0,0.362-0.293,0.655-0.655,0.655c-0.362,0-0.655-0.293-0.655-0.655v-1.961c0-0.361,0.293-0.655,0.655-0.655
		c0.361,0,0.655,0.293,0.655,0.655V180.964z"/>
	<rect x="90.466" y="198.25" fill="#C3996B" width="2.028" height="9.007"/>
	<ellipse fill="#C3996B" cx="91.48" cy="215.34" rx="5.286" ry="8.69"/>
	<path fill="#A87C4F" d="M88.5,217.635c0-4.799,2.367-8.69,5.286-8.69c0.519,0,1.018,0.128,1.491,0.356
		c-0.961-1.632-2.306-2.651-3.796-2.651c-2.92,0-5.287,3.891-5.287,8.69c0,3.947,1.603,7.275,3.795,8.333
		C89.069,222.11,88.5,219.983,88.5,217.635z"/>
</g>
<ellipse fill="#404041" cx="91.48" cy="178.983" rx="0.938" ry="0.883"/>
<g>
	<path fill="#FFFFFF" d="M249.72,17.62c-128.07,0-231.89,103.82-231.89,231.9c0,128.07,103.82,231.89,231.89,231.89
		c128.08,0,231.9-103.82,231.9-231.89C481.62,121.44,377.8,17.62,249.72,17.62z M249.72,471.41
		c-122.35,0-221.89-99.54-221.89-221.89c0-122.36,99.54-221.9,221.89-221.9c122.36,0,221.9,99.54,221.9,221.9
		C471.62,371.87,372.08,471.41,249.72,471.41z"/>
	<path fill="none" d="M471.62,249.52c0,122.35-99.54,221.89-221.9,221.89c-122.35,0-221.89-99.54-221.89-221.89
		c0-122.36,99.54-221.9,221.89-221.9C372.08,27.62,471.62,127.16,471.62,249.52z"/>
	<path fill="#7F8C8D" d="M420.77,78.47C375.08,32.78,314.34,7.62,249.72,7.62c-64.61,0-125.35,25.16-171.04,70.85
		C32.99,124.16,7.83,184.9,7.83,249.52c0,64.61,25.16,125.36,70.85,171.04c45.69,45.69,106.43,70.851,171.04,70.851
		c64.62,0,125.36-25.16,171.049-70.851c45.69-45.68,70.851-106.43,70.851-171.04C491.62,184.9,466.46,124.16,420.77,78.47z
		 M249.72,471.41c-122.35,0-221.89-99.54-221.89-221.89c0-122.36,99.54-221.9,221.89-221.9c122.36,0,221.9,99.54,221.9,221.9
		C471.62,371.87,372.08,471.41,249.72,471.41z"/>
</g>
</svg>
