<?xml version="1.0" encoding="utf-8"?>
<!-- Generator: Adobe Illustrator 16.2.0, SVG Export Plug-In . SVG Version: 6.00 Build 0)  -->
<!DOCTYPE svg PUBLIC "-//W3C//DTD SVG 1.1//EN" "http://www.w3.org/Graphics/SVG/1.1/DTD/svg11.dtd">
<svg version="1.1" id="Layer_1" xmlns="http://www.w3.org/2000/svg" xmlns:xlink="http://www.w3.org/1999/xlink" x="0px" y="0px"
	 width="500px" height="500px" viewBox="0 0 500 500" enable-background="new 0 0 500 500" xml:space="preserve">
<circle fill="#EFC419" cx="252" cy="247.572" r="231.799"/>
<g>
	<path fill="#E3C5AF" d="M299.667,229.848h-13.442l-8.488-0.22c-3.918,0-6.759-4.08-8.209-7.469v-16.849h-16.563h-0.281H236.12
		v16.849c-1.449,3.389-4.81,5.763-8.727,5.763l-9.03-0.075h-12.134c0,35.5,15.805,57.846,46.454,57.982v0.004
		c0.045,0,0.094-0.002,0.141-0.002s0.094,0.002,0.141,0.002v-0.004C283.613,285.693,299.667,265.348,299.667,229.848z"/>
	<path fill="#F4DFCC" d="M289.457,164.638c-0.115,0-0.229,0.012-0.341,0.032c-2.438-22.346-17.757-39.564-36.292-39.564
		c-18.537,0-33.854,17.218-36.293,39.564c-0.112-0.02-0.226-0.032-0.341-0.032c-2.199,0-3.982,3.701-3.982,8.265
		c0,4.564,1.783,8.265,3.982,8.265c0.439,0,0.861-0.149,1.256-0.422c5.231,20.583,25.509,35.994,35.378,35.994
		c10.295,0,30.252-15.404,35.396-35.98c0.389,0.264,0.805,0.408,1.236,0.408c2.199,0,3.982-3.7,3.982-8.265
		C293.439,168.338,291.656,164.638,289.457,164.638z"/>
	<g>
		<ellipse fill="#EFEDED" cx="238.888" cy="170.482" rx="6.231" ry="5.103"/>
		<circle fill="#4A3222" cx="238.888" cy="171.422" r="4.042"/>
		<circle fill="#EFEDED" cx="238.888" cy="173.887" r="1.577"/>
	</g>
	<g>
		<ellipse fill="#EFEDED" cx="267.861" cy="170.647" rx="6.231" ry="5.102"/>
		<circle fill="#4A3222" cx="268.029" cy="171.708" r="4.042"/>
		<circle fill="#EFEDED" cx="268.029" cy="174.008" r="1.576"/>
	</g>
	<path fill="#E96956" d="M262.35,198.117c-1.889-0.121-3.542-0.588-4.487-0.597c-0.944-0.007-2.952,0.959-3.307,1.443
		c-0.007,0.01-0.013,0.023-0.021,0.036c-0.461-0.481-2.311-1.333-3.201-1.327c-0.932,0.007-2.561,0.458-4.424,0.575
		c-1.861,0.116-2.91-0.465-4.19-1.164c0,0,3.597,6.031,11.832,6.052c0.004,0.037,0.005,0.059,0.005,0.059
		c8.385,0,12.046-6.285,12.046-6.285C265.302,197.634,264.238,198.238,262.35,198.117z"/>
	<path fill="#E7BC98" d="M254.66,188.53c-2.524,0-4.609-2.084-4.925-4.783c-0.027,0.233-0.043,0.47-0.043,0.712
		c0,3.035,2.224,5.496,4.968,5.496s4.968-2.461,4.968-5.496c0-0.242-0.015-0.479-0.042-0.712
		C259.271,186.445,257.187,188.53,254.66,188.53z"/>
	<path fill="#F1D9C5" d="M289.457,164.638c-0.115,0-0.229,0.012-0.341,0.032c-1.912-17.522-11.744-31.89-24.836-37.277
		c9.53,10.026,15.459,24.085,15.459,39.653c0,21.789-11.611,40.624-28.464,49.578c0.539,0.076,1.058,0.115,1.549,0.115
		c10.295,0,30.252-15.404,35.396-35.98c0.389,0.264,0.805,0.408,1.236,0.408c2.199,0,3.982-3.7,3.982-8.265
		C293.439,168.338,291.656,164.638,289.457,164.638z"/>
	<path fill="#512E1C" d="M293.439,157.935c-2.868-16.544-11.781-31.558-25.745-35.769c2.9-2.879,4.711-6.72,4.913-10.932
		c0.688-14.354-8.044-16.159-17.966-16.159c-9.922,0-17.966,0-17.966,16.159c0,4.837,2.367,9.174,6.109,12.136
		c-34.506,10.229-50.021,51.907-12.54,93.802c36.265,40.536-28.782-42.051,4.202-50.435c27.384-6.96,33.947-11.363,35.41-13.393
		c-0.524,9.138,20.846,43.272,4.76,58.221C274.617,211.564,299.732,194.24,293.439,157.935z"/>
</g>
<path fill="#E67E25" d="M304.824,313.365c-3.354-42.867-4.599-18.398-1.491-34.698c10.167-53.333,17.865-49.937-25.715-49.937
	c0.075,0.625,0.118,1.258,0.118,1.897c0,11.316-11.569,35.875-26.375,35.875c-14.805,0-27.241-24.559-27.241-35.875
	c0-1.019,0.101-2.018,0.289-2.997c-46.576-4.464-28.137,22.536-26.409,45.036c1.267,16.494,1.637-11.167,1.637,37.527
	L304.824,313.365z"/>
<path fill="#F1F1F2" d="M187,403.185h134.198c0-15.095-9.216-37.86-10.868-61.697c-1.826-26.344-30.712-112.757-30.712-112.757
	l3.644,70.597c-40.375,8.729-60.76,0.127-60.76,0.127c-0.799-15.623,0-70.634,0-70.634s-29.323,95.083-27.234,116.935
	C196.229,355.801,184.12,385.384,187,403.185z"/>
<path fill="#EEF2F5" d="M436.229,403.5H71.526v10.035c42.504,43.79,107.241,71.763,179.765,71.763
	c75.532,0,142.617-30.34,184.938-77.29V403.5z"/>
<g id="Layer_2">
</g>
<g id="Layer_3">
</g>
<g>
	<path fill="#FFFFFF" d="M249.72,17.62c-128.07,0-231.89,103.82-231.89,231.9c0,128.07,103.82,231.89,231.89,231.89
		c128.08,0,231.9-103.82,231.9-231.89C481.62,121.44,377.8,17.62,249.72,17.62z M249.72,471.41
		c-122.35,0-221.89-99.54-221.89-221.89c0-122.36,99.54-221.9,221.89-221.9c122.36,0,221.9,99.54,221.9,221.9
		C471.62,371.87,372.08,471.41,249.72,471.41z"/>
	<path fill="none" d="M471.62,249.52c0,122.35-99.54,221.89-221.9,221.89c-122.35,0-221.89-99.54-221.89-221.89
		c0-122.36,99.54-221.9,221.89-221.9C372.08,27.62,471.62,127.16,471.62,249.52z"/>
	<path fill="#7F8C8D" d="M420.77,78.47C375.08,32.78,314.34,7.62,249.72,7.62c-64.61,0-125.35,25.16-171.04,70.85
		C32.99,124.16,7.83,184.9,7.83,249.52c0,64.61,25.16,125.36,70.85,171.04c45.69,45.69,106.43,70.851,171.04,70.851
		c64.62,0,125.36-25.16,171.049-70.851c45.69-45.68,70.851-106.43,70.851-171.04C491.62,184.9,466.46,124.16,420.77,78.47z
		 M249.72,471.41c-122.35,0-221.89-99.54-221.89-221.89c0-122.36,99.54-221.9,221.89-221.9c122.36,0,221.9,99.54,221.9,221.9
		C471.62,371.87,372.08,471.41,249.72,471.41z"/>
</g>
<path fill="#72594B" d="M295.597,75.66"/>
<path fill="#72594B" d="M304.301,72.647"/>
<path fill="#72594B" d="M210.307,142.733c0,0.111-0.09,0.201-0.202,0.201h-0.403c-0.112,0-0.202-0.09-0.202-0.201l0,0
	c0-0.112,0.09-0.202,0.202-0.202h0.403C210.217,142.531,210.307,142.621,210.307,142.733L210.307,142.733z"/>
<path fill="#72594B" d="M261.617,115.774c0,0.056-0.045,0.102-0.101,0.102h-0.202c-0.057,0-0.102-0.046-0.102-0.102l0,0
	c0-0.056,0.045-0.101,0.102-0.101h0.202C261.572,115.674,261.617,115.719,261.617,115.774L261.617,115.774z"/>
<path fill="#404041" d="M325.334,399.25c0,2.201-4.521,3.984-10.102,3.984H192.268c-5.579,0-10.101-1.783-10.101-3.984l0,0
	c0-2.201,4.522-3.984,10.101-3.984h122.964C320.813,395.266,325.334,397.049,325.334,399.25L325.334,399.25z"/>
<path fill="#D35728" d="M199.413,230.848l-0.395,50.671c0,0-2.447,37.82-2.447,47.92s21.519,8.021,28.126,12.022l-9.774,10.466
	c0,0-31.257,4.937-39.257-12.063S186.984,230.848,199.413,230.848z"/>
<path fill="#D35728" d="M308.412,230.848l-6.007,47.652c0,0-1.503,45.279-1.243,81.525l9.451,14.21
	C310.613,374.235,338.307,260.203,308.412,230.848z"/>
<g>
	<path fill="#BA58A1" d="M210.943,378.459c-0.416-0.858-1.131-1.665-1.984-2.423c-1.237-1.245-2.639-2.286-3.986-3.067
		c-0.108-0.086-0.226-0.177-0.36-0.276c-1.67-1.236-2.452-2.532-2.792-3.633c-0.01-0.038-0.021-0.074-0.031-0.109
		c-0.444-1.552-0.023-2.695-0.023-2.695l-1.244,0.015l-0.589,0.006l-0.78,0.008c0,0,1.083,3.522-3.169,6.503
		c-0.538,0.377-0.861,0.654-1.018,0.851c-0.862,0.689-1.695,1.51-2.568,2.396c-0.953,0.855-1.75,1.766-2.169,2.731
		c-1.004,1.62-1.646,3.421-1.626,5.313c0.054,4.985,2.899,9.261,6.972,11.238l10.418-0.114c4.029-2.064,6.78-6.4,6.726-11.387
		C212.699,381.892,212.005,380.076,210.943,378.459z"/>
	<path fill="#AE4A9A" d="M210.943,378.459c-0.416-0.858-1.131-1.665-1.984-2.423c-1.237-1.245-2.639-2.286-3.986-3.067
		c-0.108-0.086-0.226-0.177-0.36-0.276c-1.67-1.236-2.452-2.532-2.792-3.633c-0.01-0.038-0.021-0.074-0.031-0.109
		c-0.444-1.552-0.023-2.695-0.023-2.695l-0.898,0.011c0.11,3.882-0.473,4.497,6.245,11.413c6.487,6.679-1.984,16.639-5.74,17.573
		l4.621-0.051c4.029-2.064,6.78-6.4,6.726-11.387C212.699,381.892,212.005,380.076,210.943,378.459z"/>
	<path fill="#ECD1E5" d="M196.181,395.309c-2.162-1.204-5.533-4.753-6.468-10.016c0,0,1.384,6.282,7.279,10.007L196.181,395.309z"/>
	<path fill="#ECD1E5" d="M198.044,395.288c-1.862-1.488-4.134-3.2-5.324-8.292c0,0,1.189,5.092,6.135,8.283L198.044,395.288z"/>
	<path fill="#ECD1E5" d="M199.667,395.271c-1.862-1.488-4.833-6.964-5.601-13.029c0,0,1.363,8.472,6.478,13.02L199.667,395.271z"/>
	<path fill="#ECD1E5" d="M205.533,395.228c2.135-1.251,5.428-4.872,6.248-10.154c0,0-1.247,6.311-7.059,10.162L205.533,395.228z"/>
	<path fill="#ECD1E5" d="M203.668,395.248c1.83-1.529,4.065-3.29,5.143-8.407c0,0-1.078,5.117-5.953,8.415L203.668,395.248z"/>
	<path fill="#ECD1E5" d="M202.046,395.265c1.83-1.528,4.682-7.067,5.317-13.147c0,0-1.18,8.498-6.194,13.158L202.046,395.265z"/>
	<path fill="#ECD1E5" d="M200.544,395.261c-1.631-2.785-4.474-10.166-0.436-21.918c0,0-4.394,10.932,0.677,21.936"/>
	<path fill="#ECD1E5" d="M201.026,395.233c1.57-2.821,4.196-10.413-0.096-22.075c0,0,4.687,10.984-0.145,22.098"/>
	<path fill="#ECD1E5" d="M198.984,371.729c-1.472,0.719-3.485,2.144-4.783,3.78c-1.298,1.636,0.175-0.002,0.175-0.002
		s1.546-1.545,2.433-2.129C197.53,372.903,198.984,371.729,198.984,371.729z"/>
	<path fill="#ECD1E5" d="M199.061,373.179c-0.715,0.672-1.617,1.863-2.075,3.07c-0.458,1.206,0.1-0.029,0.1-0.029
		s0.616-1.189,1.02-1.688C198.435,374.127,199.061,373.179,199.061,373.179z"/>
	<path fill="#ECD1E5" d="M201.992,373.146c0.73,0.657,1.657,1.828,2.142,3.024c0.485,1.197-0.1-0.026-0.1-0.026
		s-0.642-1.177-1.057-1.665C202.64,374.081,201.992,373.146,201.992,373.146z"/>
	<path fill="#ECD1E5" d="M202.33,371.988c1.487,0.686,3.53,2.067,4.863,3.675c1.333,1.608-0.175,0.003-0.175,0.003
		s-1.579-1.511-2.478-2.076C203.809,373.131,202.33,371.988,202.33,371.988z"/>
</g>
<g>
	<path fill="#BA58A1" d="M294.882,383.046c0.157-0.94,0.039-2.013-0.219-3.124c-0.29-1.73-0.832-3.391-1.48-4.807
		c-0.038-0.132-0.082-0.274-0.134-0.434c-0.647-1.974-0.538-3.483-0.179-4.578c0.014-0.037,0.025-0.072,0.037-0.107
		c0.535-1.522,1.539-2.213,1.539-2.213l-1.023-0.707l-0.484-0.335l-0.641-0.444c0,0-1.152,3.5-6.345,3.475
		c-0.657-0.003-1.081,0.037-1.322,0.106c-1.103,0.064-2.257,0.252-3.48,0.472c-1.272,0.147-2.448,0.43-3.349,0.976
		c-1.756,0.741-3.32,1.84-4.398,3.396c-2.836,4.1-2.985,9.233-0.805,13.201l8.568,5.928c4.482,0.644,9.232-1.305,12.07-5.406
		C294.331,386.862,294.813,384.979,294.882,383.046z"/>
	<path fill="#AE4A9A" d="M294.882,383.046c0.157-0.94,0.039-2.013-0.219-3.124c-0.29-1.73-0.832-3.391-1.48-4.807
		c-0.038-0.132-0.082-0.274-0.134-0.434c-0.647-1.974-0.538-3.483-0.179-4.578c0.014-0.037,0.025-0.072,0.037-0.107
		c0.535-1.522,1.539-2.213,1.539-2.213l-0.739-0.51c-2.153,3.231-2.984,3.396-1.499,12.923c1.434,9.199-11.236,12.432-14.841,11.024
		l3.8,2.629c4.482,0.644,9.232-1.305,12.07-5.406C294.331,386.862,294.813,384.979,294.882,383.046z"/>
	<path fill="#ECD1E5" d="M273.097,388.266c-1.068-2.231-1.768-7.076,0.51-11.911c0,0-2.5,5.927,0.158,12.373L273.097,388.266z"/>
	<path fill="#ECD1E5" d="M274.63,389.326c-0.66-2.291-1.525-5.001,0.447-9.844c0,0-1.973,4.843,0.219,10.305L274.63,389.326z"/>
	<path fill="#ECD1E5" d="M275.964,390.249c-0.66-2.291,0.08-8.477,2.959-13.87c0,0-3.783,7.702-2.237,14.369L275.964,390.249z"/>
	<path fill="#ECD1E5" d="M280.776,393.604c2.465,0.213,7.245-0.839,10.967-4.677c0,0-4.664,4.43-11.634,4.214L280.776,393.604z"/>
	<path fill="#ECD1E5" d="M279.243,392.544c2.377-0.19,5.219-0.336,9.055-3.89c0,0-3.836,3.554-9.721,3.427L279.243,392.544z"/>
	<path fill="#ECD1E5" d="M277.909,391.619c2.377-0.189,7.905-3.062,11.938-7.656c0,0-5.873,6.254-12.659,7.159L277.909,391.619z"/>
	<path fill="#ECD1E5" d="M276.686,390.748c0.278-3.216,2.224-10.882,12.311-18.139c0,0-9.903,6.382-12.124,18.292"/>
	<path fill="#ECD1E5" d="M277.095,391.004c2.912-1.395,9.441-6.073,12.679-18.07c0,0-2.523,11.673-12.889,17.949"/>
	<path fill="#ECD1E5" d="M289.012,370.644c-1.616-0.265-4.083-0.266-6.088,0.32c-2.005,0.585,0.144,0.1,0.144,0.1
		s2.155-0.367,3.217-0.331C287.146,370.761,289.012,370.644,289.012,370.644z"/>
	<path fill="#ECD1E5" d="M288.237,371.87c-0.973,0.135-2.396,0.586-3.469,1.307c-1.07,0.72,0.099,0.033,0.099,0.033
		s1.19-0.614,1.808-0.787C287.177,372.282,288.237,371.87,288.237,371.87z"/>
	<path fill="#ECD1E5" d="M290.647,373.538c0.216,0.958,0.296,2.449,0,3.706c-0.297,1.257-0.066-0.079-0.066-0.079
		s0.156-1.332,0.1-1.97C290.636,374.675,290.647,373.538,290.647,373.538z"/>
	<path fill="#ECD1E5" d="M291.593,372.788c0.817,1.419,1.686,3.728,1.845,5.81c0.159,2.083-0.145-0.1-0.145-0.1
		s-0.415-2.146-0.822-3.126C292.139,374.575,291.593,372.788,291.593,372.788z"/>
</g>
<path fill="#E8D5B3" d="M308.697,368.248c3.469,8.683,1.995,10.995-7.392,14.745c-9.384,3.747-19.241,1.159-21.3-4
	c-2.154-5.39,3.016-14.541,12.399-18.289C301.792,356.956,305.228,359.563,308.697,368.248z"/>
<g>
	<g>
		<path fill="#BBBDBF" d="M239.287,354.921l56.796,16.272c0,0-10.04,7.382-33.892,0.786c-23.854-6.597-25.331-11.313-25.331-11.313
			L239.287,354.921z"/>
		<path fill="#3B2314" d="M242.119,360.026c-0.627,2.191-2.995,3.436-5.286,2.779l-21.995-6.302
			c-2.291-0.656-3.64-2.966-3.012-5.157l0,0c0.627-2.191,2.995-3.436,5.286-2.779l21.995,6.302
			C241.398,355.525,242.747,357.835,242.119,360.026L242.119,360.026z"/>
	</g>
	<circle fill="#A87C4F" cx="215.119" cy="351.927" r="1.261"/>
</g>
<path fill="#E8D5B3" d="M220.546,343.623c-11.362,8.05-4.923,4.969-2.833,14.9c2.089,9.933,4.237,10.635,9.26,8.75
	c5.248-1.966,10.009-6.025,7.921-15.956C232.804,341.384,227.915,338.402,220.546,343.623z"/>
</svg>
