<?xml version="1.0" encoding="utf-8"?>
<!-- Generator: Adobe Illustrator 16.2.0, SVG Export Plug-In . SVG Version: 6.00 Build 0)  -->
<!DOCTYPE svg PUBLIC "-//W3C//DTD SVG 1.1//EN" "http://www.w3.org/Graphics/SVG/1.1/DTD/svg11.dtd">
<svg version="1.1" id="Layer_1" xmlns="http://www.w3.org/2000/svg" xmlns:xlink="http://www.w3.org/1999/xlink" x="0px" y="0px"
	 width="500px" height="500px" viewBox="0 0 500 500" enable-background="new 0 0 500 500" xml:space="preserve">
<circle fill="#35495E" cx="250.625" cy="248.203" r="221.895"/>
<path fill="#1C2F3F" d="M366.111,409.536c0,4.586-51.707,8.305-115.489,8.305c-63.778,0-115.484-3.719-115.484-8.305
	s51.706-8.305,115.484-8.305C314.404,401.231,366.111,404.95,366.111,409.536z"/>
<g id="Layer_2">
</g>
<g id="Layer_3">
</g>
<g>
	<path fill="#FFFFFF" d="M249.72,17.62c-128.07,0-231.89,103.82-231.89,231.9c0,128.07,103.82,231.89,231.89,231.89
		c128.08,0,231.9-103.82,231.9-231.89C481.62,121.44,377.8,17.62,249.72,17.62z M249.72,471.41
		c-122.35,0-221.89-99.54-221.89-221.89c0-122.36,99.54-221.9,221.89-221.9c122.36,0,221.9,99.54,221.9,221.9
		C471.62,371.87,372.08,471.41,249.72,471.41z"/>
	<path fill="none" d="M471.62,249.52c0,122.35-99.54,221.89-221.9,221.89c-122.35,0-221.89-99.54-221.89-221.89
		c0-122.36,99.54-221.9,221.89-221.9C372.08,27.62,471.62,127.16,471.62,249.52z"/>
	<path fill="#7F8C8D" d="M420.77,78.47C375.08,32.78,314.34,7.62,249.72,7.62c-64.61,0-125.35,25.16-171.04,70.85
		C32.99,124.16,7.83,184.9,7.83,249.52c0,64.61,25.16,125.36,70.85,171.04c45.69,45.69,106.43,70.851,171.04,70.851
		c64.62,0,125.36-25.16,171.049-70.851c45.69-45.68,70.851-106.43,70.851-171.04C491.62,184.9,466.46,124.16,420.77,78.47z
		 M249.72,471.41c-122.35,0-221.89-99.54-221.89-221.89c0-122.36,99.54-221.9,221.89-221.9c122.36,0,221.9,99.54,221.9,221.9
		C471.62,371.87,372.08,471.41,249.72,471.41z"/>
</g>
<path fill="#D0D2D3" d="M283.276,321.615"/>
<path fill="#D0D2D3" d="M282.979,321.617"/>
<path fill="#E4C6B0" d="M274.365,263.797c0.423-3.664,2.736-6.656,5.783-7.994c0.33-10.572,2.789-46.921,3.204-53.029
	c0.008-0.288,0.024-0.582,0.061-0.881l2.159-28.819c0.41-3.419,3.822-6.251,7.502-5.512c1.262,0.253,4.231,3.141,3.821,6.562
	l-2.952,28.828c-0.035,0.295-0.084,0.576-0.138,0.858l-8.229,51.549c2.979,1.516-2.482,8.609-3.045,13.471
	c-0.611,5.295,4.969,7.756-0.051,7.27C277.465,275.611,273.753,269.09,274.365,263.797z"/>
<path fill="#E4C6B0" d="M347.479,167.815h-10.342l-4.419,0.043c-1.917,0-3.563-1.349-4.272-3.272v-9.568h-8.105h-0.139h-8.105v9.568
	c-0.71,1.923-2.354,3.272-4.271,3.272l-4.42-0.043h-10.342c0,20.161,12.139,32.851,27.139,32.927l0.069,15.381
	c0.023,0-0.022-15.38,0-15.38c0.023,0-0.019,11.38,0.005,11.38l0.064-11.381C335.341,200.667,347.479,187.977,347.479,167.815z"/>
<path fill="#E4C6B0" d="M293.063,167.815c1.199,10.43,0.592,29.975,3.833,33.642s8.241,20.667,8.241,23.667
	s37.049,1.333,37.049,1.333s-1.336-23.795,3.641-27.064l1.652-31.577H293.063z"/>
<path fill="#F5E0CD" d="M338.149,130.125c-0.059,0-0.118,0.007-0.173,0.017c-1.244-12.416-9.052-21.987-18.5-21.987
	c-9.449,0-17.256,9.571-18.5,21.987c-0.057-0.01-0.115-0.017-0.174-0.017c-1.121,0-2.029,2.056-2.029,4.592
	c0,2.54,0.908,4.595,2.029,4.595c0.224,0,0.439-0.083,0.641-0.234c2.666,11.438,13.002,20.002,18.033,20.002
	c5.248,0,15.419-8.56,18.043-19.995c0.198,0.145,0.409,0.227,0.63,0.227c1.12,0,2.03-2.055,2.03-4.595
	C340.18,132.182,339.27,130.125,338.149,130.125z"/>
<g>
	<ellipse fill="#EFEEEE" cx="311.479" cy="133.375" rx="2.283" ry="2.834"/>
	<ellipse fill="#4A3222" cx="311.541" cy="133.402" rx="1.48" ry="2.246"/>
	<ellipse fill="#EFEEEE" cx="311.54" cy="134.277" rx="0.577" ry="0.875"/>
</g>
<g>
	<ellipse fill="#EFEEEE" cx="324.651" cy="133.375" rx="2.282" ry="2.834"/>
	<ellipse fill="#4A3222" cx="324.713" cy="133.402" rx="1.48" ry="2.246"/>
	<ellipse fill="#EFEEEE" cx="324.712" cy="134.277" rx="0.578" ry="0.875"/>
</g>
<path fill="#EA6A56" d="M313.762,148.851c-0.08-1.093,2.523-1.61,3.352-0.863c0.828,0.748,0.039,0.69,0.631,0.058
	c0.591-0.633,0.67-1.898,5.102,0.106c1.589,0.719,2.98,0.469,2.902,0.354c-0.08-0.115-2.879,2.933-8.004,2.933
	C313.328,151.438,313.85,150.057,313.762,148.851z"/>
<path fill="#E9BE9A" d="M316.731,141.975c-0.478-0.909-0.079-2.073,0.884-2.725c-0.092,0.037-0.188,0.079-0.277,0.126
	c-1.152,0.605-1.664,1.894-1.145,2.881c0.518,0.987,1.871,1.297,3.023,0.692c0.09-0.048,0.178-0.102,0.26-0.158
	C318.396,143.217,317.209,142.884,316.731,141.975z"/>
<path fill="#F2DAC6" d="M338.149,130.125c-0.059,0-0.118,0.007-0.173,0.017c-0.977-9.737-5.988-17.719-12.661-20.715
	c4.858,5.573,7.881,13.384,7.881,22.036c0,12.11-5.92,22.579-14.511,27.553c0.276,0.041,0.541,0.064,0.791,0.064
	c5.248,0,15.419-8.56,18.043-19.995c0.198,0.145,0.409,0.227,0.63,0.227c1.12,0,2.03-2.055,2.03-4.595
	C340.18,132.182,339.27,130.125,338.149,130.125z"/>
<path fill="#512E1B" d="M340.18,126.4c-1.461-9.196-6.006-17.538-13.124-19.877c1.479-1.601,2.401-3.734,2.505-6.076
	c0.352-7.977-4.1-8.979-9.158-8.979c-5.057,0-9.157,0-9.157,8.979c0,2.689,1.206,5.1,3.114,6.745
	c-17.588,5.685-25.498,28.846-6.393,52.127c18.484,22.529-14.671-23.369,2.143-28.028c13.957-3.866,17.303-6.314,18.049-7.443
	c-0.266,5.08,10.626,24.049,2.428,32.356C330.586,156.204,343.387,146.577,340.18,126.4z"/>
<path fill="#ECD4C3" d="M366.045,263.797c-0.424-3.662-2.736-6.654-5.781-7.992c-0.33-10.575-2.789-46.921-3.205-53.031
	c-0.008-0.29-0.025-0.582-0.063-0.882l-2.156-28.821c-0.41-3.417-3.768-5.886-7.504-5.51c-3.732,0.377-6.426,3.452-6.016,6.873
	l5.148,28.52c0.033,0.292,0.084,0.577,0.137,0.856l8.23,51.551c-2.979,1.516,2.48,8.609,3.043,13.471
	c0.611,5.293-4.969,7.754,0.051,7.27C362.947,275.611,366.656,269.09,366.045,263.797z"/>
<path fill="#E4C6B0" d="M322.936,278.551l-23.805-22.488c-8.164,42.352-7.387,39.24-6.02,59.061
	c0.5,7.25,9.326,38.166,10.416,44.469c0.762,4.406,6.609,32.531,6.942,40.531c0,0,5.333,6,6.333,0s3.579-32.607,3.734-38.473
	c0.479-7.609-5.73-23.627-7.57-33.748C310.875,316.391,323.814,300.262,322.936,278.551z"/>
<path fill="#E4C6B0" d="M344.158,332.164c-4.014-21.951,19.31-51.656,7.201-78.373l-25.287,24.76
	c-0.881,21.711,0.947,30.592-0.162,42.24c-0.657,6.895,3.023,30.553,3.277,40.969c0.007,0,0.014,0,0.02,0
	c0.182,6.061,2.736,32.396,3.73,38.363c1,6,6.333,0,6.333,0c0.317-7.607,5.642-33.482,6.163-39.846
	c0.01-0.002,0.019-0.002,0.027-0.004c0.006-0.211,0.006-0.424,0.01-0.637c0.002-0.064,0.008-0.141,0.008-0.197h-0.004
	C345.585,353.32,345.162,337.652,344.158,332.164z"/>
<path fill="#F1F1F2" d="M313.809,148.971c1.758,0.014,6.194-0.072,8.159-0.007c2.282,0.076,1.766,0,1.766,0
	s-2.563,1.389-5.339,1.514c-1.603,0.072-2.806-0.037-3.464-0.313C314.262,149.885,313.809,148.971,313.809,148.971z"/>
<path fill="#D14841" d="M348.909,167.559l-17.776,0.091l0,0c-0.281,4.928-7.225,12.385-14.236,11.885
	c-6.281-0.448-7.668-6.868-7.432-11.773l-15.598-0.317c0,0,0.046,8.1,0,26.605c-0.021,8.625,9.414,16.772,8.779,31.236
	c-0.206,4.69,42.22,3.154,41.5,0.625c-2.289-8.047,2.957-22.913,2.126-32.958S348.909,167.559,348.909,167.559z"/>
<path fill="#404041" d="M304.887,226.918c-4.74,15.866-25.296,58.38-16.74,92.367c1.066,4.236,4.916,14.986,4.916,14.986
	l55.847,3.289c0,0-5.237-5.113,0-15.945c5.237-10.83,7.697-29.758,7.737-57.33c0.025-17.5-6.118-24.767-9.168-33.5
	S304.887,226.918,304.887,226.918z"/>
<path fill="#404041" d="M318.686,405.826c0,3.035-7.402,2.461-16.534,2.461s-16.535,0.574-16.535-2.461
	c0-3.037,12.775-8.535,21.907-8.535S318.686,402.789,318.686,405.826z"/>
<path fill="#404041" d="M343.782,406.027c0,3.037-7.402,2.461-16.534,2.461s-16.535,0.576-16.535-2.461
	c0-3.035,12.775-8.533,21.907-8.533S343.782,402.992,343.782,406.027z"/>
<path fill="#D14841" d="M293.867,167.444l0.892,31.552h-12.362C282.396,198.996,276.588,164.603,293.867,167.444z"/>
<path fill="#EB6A56" d="M341.278,198.934v-22.759c0-4.88,4.085-8.837,9.125-8.837l0,0c5.04,0,9.125,3.957,9.125,8.837v22.759"/>
<g>
	<path fill="#D0D2D3" d="M241.647,321.777"/>
	<path fill="#D0D2D3" d="M241.945,321.778"/>
	<g>
		<path fill="#E4C6B0" d="M250.559,263.959c-0.423-3.664-2.736-6.656-5.783-7.994c-0.33-10.572-2.789-46.922-3.204-53.029
			c-0.008-0.288-0.024-0.582-0.061-0.881l-2.159-28.819c-0.41-3.419-3.822-6.251-7.502-5.512c-1.262,0.253-4.231,3.141-3.821,6.562
			l2.952,28.828c0.035,0.295,0.084,0.576,0.138,0.858l8.229,51.55c-2.979,1.516,2.482,8.609,3.045,13.471
			c0.611,5.295-4.969,7.756,0.051,7.27C247.459,275.773,251.171,269.252,250.559,263.959z"/>
		<path fill="#E4C6B0" d="M177.445,167.977h10.342l4.419,0.043c1.917,0,3.563-1.349,4.272-3.272v-9.568h8.105h0.139h8.105v9.568
			c0.71,1.923,2.354,3.272,4.271,3.272l4.42-0.043h10.342c0,20.161-12.139,32.851-27.139,32.927l-0.069,15.381
			c-0.023,0,0.022-15.38,0-15.38c-0.023,0,0.019,11.38-0.005,11.38l-0.064-11.381C189.583,200.828,177.445,188.138,177.445,167.977z
			"/>
		<path fill="#E4C6B0" d="M231.861,167.977c-1.199,10.43-0.592,29.975-3.833,33.642s-8.241,20.667-8.241,23.667
			s-37.049,1.333-37.049,1.333s1.336-23.795-3.641-27.064l-1.652-31.577H231.861z"/>
		<path fill="#F5E0CD" d="M186.774,130.287c0.059,0,0.118,0.007,0.173,0.017c1.244-12.416,9.052-21.987,18.5-21.987
			c9.449,0,17.256,9.571,18.5,21.987c0.057-0.01,0.115-0.017,0.174-0.017c1.121,0,2.029,2.056,2.029,4.592
			c0,2.54-0.908,4.595-2.029,4.595c-0.224,0-0.439-0.083-0.641-0.234c-2.666,11.438-13.002,20.002-18.033,20.002
			c-5.248,0-15.419-8.56-18.043-19.995c-0.198,0.145-0.409,0.227-0.63,0.227c-1.12,0-2.03-2.055-2.03-4.595
			C184.744,132.343,185.654,130.287,186.774,130.287z"/>
		<g>
			<ellipse fill="#EFEEEE" cx="213.445" cy="133.537" rx="2.283" ry="2.834"/>
			<ellipse fill="#4A3222" cx="213.383" cy="133.563" rx="1.48" ry="2.246"/>
			<ellipse fill="#EFEEEE" cx="213.384" cy="134.438" rx="0.577" ry="0.875"/>
		</g>
		<g>
			<ellipse fill="#EFEEEE" cx="200.272" cy="133.537" rx="2.282" ry="2.834"/>
			<ellipse fill="#4A3222" cx="200.211" cy="133.563" rx="1.48" ry="2.246"/>
			<ellipse fill="#EFEEEE" cx="200.211" cy="134.438" rx="0.578" ry="0.875"/>
		</g>
		<path fill="#EA6A56" d="M211.162,149.012c0.08-1.093-2.523-1.61-3.352-0.863c-0.828,0.748-0.039,0.69-0.631,0.058
			c-0.591-0.633-0.67-1.898-5.102,0.106c-1.589,0.719-2.98,0.469-2.902,0.354c0.08-0.115,2.879,2.933,8.004,2.933
			C211.596,151.6,211.074,150.218,211.162,149.012z"/>
		<path fill="#E9BE9A" d="M208.192,142.136c0.478-0.909,0.079-2.073-0.884-2.725c0.092,0.037,0.188,0.079,0.277,0.126
			c1.152,0.605,1.664,1.894,1.145,2.881c-0.518,0.987-1.871,1.297-3.023,0.692c-0.09-0.048-0.178-0.102-0.26-0.158
			C206.528,143.378,207.715,143.045,208.192,142.136z"/>
		<path fill="#F2DAC6" d="M186.774,130.287c0.059,0,0.118,0.007,0.173,0.017c0.977-9.737,5.988-17.719,12.661-20.715
			c-4.858,5.573-7.881,13.384-7.881,22.036c0,12.11,5.92,22.579,14.511,27.553c-0.276,0.041-0.541,0.064-0.791,0.064
			c-5.248,0-15.419-8.56-18.043-19.995c-0.198,0.145-0.409,0.227-0.63,0.227c-1.12,0-2.03-2.055-2.03-4.595
			C184.744,132.343,185.654,130.287,186.774,130.287z"/>
		<path fill="#512E1B" d="M210.674,107.751c17.588,5.685,25.498,28.846,6.393,52.127c-18.484,22.529,14.671-23.369-2.143-28.028
			c-13.957-3.866-17.303-6.314-18.049-7.443c0.266,5.08-10.626,24.049-2.428,32.356c0,0-12.801-9.627-9.594-29.804
			c1.461-9.196,9.479-19.877,19.799-19.877"/>
		<path fill="#ECD4C3" d="M158.879,263.959c0.424-3.662,2.736-6.654,5.781-7.992c0.33-10.575,2.789-46.922,3.205-53.031
			c0.008-0.29,0.025-0.582,0.063-0.882l2.156-28.821c0.41-3.417,3.768-5.886,7.504-5.51c3.732,0.377,6.426,3.452,6.016,6.873
			l-5.148,28.52c-0.033,0.292-0.084,0.577-0.137,0.856l-8.23,51.552c2.979,1.516-2.48,8.609-3.043,13.471
			c-0.611,5.293,4.969,7.754-0.051,7.27C161.977,275.773,158.268,269.252,158.879,263.959z"/>
		<path fill="#D14841" d="M201.988,278.713l23.805-22.488c8.164,42.352,7.387,39.24,6.02,59.061
			c-0.5,7.25-9.326,38.166-10.416,44.469c-0.762,4.406-6.609,32.531-6.942,40.531c0,0-5.333,6-6.333,0s-3.579-32.607-3.734-38.473
			c-0.479-7.609,5.73-23.627,7.57-33.748C214.049,316.553,201.109,300.424,201.988,278.713z"/>
		<path fill="#EB6A56" d="M180.766,332.326c4.014-21.951-19.31-51.656-7.201-78.373l25.287,24.76
			c0.881,21.711-0.947,30.592,0.162,42.24c0.657,6.895-3.023,30.553-3.277,40.969c-0.007,0-0.014,0-0.02,0
			c-0.182,6.061-2.736,32.396-3.73,38.363c-1,6-6.333,0-6.333,0c-0.317-7.607-5.642-33.482-6.163-39.846
			c-0.01-0.002-0.019-0.002-0.027-0.004c-0.006-0.211-0.006-0.424-0.01-0.637c-0.002-0.064-0.008-0.141-0.008-0.197h0.004
			C179.339,353.482,179.762,337.814,180.766,332.326z"/>
		<path fill="#27B99A" d="M220.121,167.686l-1.834,0.291l1.5,14.308h-23.977l-7.51-14.6l-2.347,0.292c0,0,3.548,16.37,2.296,21.308
			c-1.227,4.833-2.463,10.622-7.796,12c0,0,1.333,46.408-16.667,75.037c-18,28.631,67.814,24.629,68.074-2.037
			s-13.066-44.296-4.84-63.705c4.969-11.722,2.729-15.658-0.938-27.325S220.121,167.686,220.121,167.686z"/>
		<path fill="#D1D6D8" d="M216.311,394.535c-2.856,5.75-1.979,11.25,1,15c2.977,3.75,4.727,5,4.727,5s-11.5-2.5-13.5-5.75
			s-1.5-7.5-1.5-7.5l-5.092,5.25l4.092-14.27L216.311,394.535z"/>
		<path fill="#F0EFEF" d="M183.57,407.135l1.002-16.34l4.963,3.113c1.881,1.238,3.912-0.115,3.912-0.115s-0.285,1.768-0.785,6.729
			c-0.5,4.959,2.5,4.408-0.75,15.432c0,0-0.711-0.412-1.629-1.121l-0.643-0.441l-0.015-0.092c-1.353-1.146-2.881-2.797-3.318-4.684
			c-0.83-3.582-0.623-8.268-0.623-8.268L183.57,407.135z"/>
		<g>
			<path fill="#00A885" d="M163.787,276.322c18-28.629,16.667-75.037,16.667-75.037c5.333-1.378,6.569-7.167,7.796-12
				c1.252-4.938-2.296-21.308-2.296-21.308l2.347-0.292l4.853,13.822c2.144,2.648,6.02,4.226,6.02,4.226
				c-6.28-3.333-13.815,11.796-14.26,19.139c0,0,3.894,39.821-14.106,68.45c-12.541,19.949,25.308,24.051,49.509,15.689
				C197.49,301.057,149.945,298.34,163.787,276.322z"/>
		</g>
	</g>
	<path fill="#F1F1F2" d="M211.115,149.133c-1.758,0.014-6.194-0.072-8.159-0.007c-2.282,0.076-1.766,0-1.766,0
		s2.563,1.389,5.339,1.514c1.603,0.072,2.806-0.037,3.464-0.313C210.662,150.047,211.115,149.133,211.115,149.133z"/>
</g>
<path fill="#512E1B" d="M192.808,150.5c0.692,3-4.106,12.263-3.707,19.465s16.039,11.202,15.552,20.202
	c0,0-0.005-10.476-2.099-19.833c-2.221-9.925-7.063-11.253-6.076-15.153"/>
</svg>
