<?xml version="1.0" encoding="utf-8"?>
<!-- Generator: Adobe Illustrator 16.2.0, SVG Export Plug-In . SVG Version: 6.00 Build 0)  -->
<!DOCTYPE svg PUBLIC "-//W3C//DTD SVG 1.1//EN" "http://www.w3.org/Graphics/SVG/1.1/DTD/svg11.dtd">
<svg version="1.1" id="Layer_1" xmlns="http://www.w3.org/2000/svg" xmlns:xlink="http://www.w3.org/1999/xlink" x="0px" y="0px"
	 width="500px" height="500px" viewBox="0 0 500 500" enable-background="new 0 0 500 500" xml:space="preserve">
<circle fill="#EFC419" cx="249.725" cy="244.685" r="231.799"/>
<path fill="#D2B29A" d="M350.168,337.705h-38.71l-16.545,0.141c-7.177,0-13.334-4.352-15.987-10.559v-30.873H248.58h-0.518h-30.346
	v30.873c-2.654,6.207-8.811,10.559-15.989,10.559l-16.543-0.141h-38.71c0,65.045,45.436,105.986,101.589,106.238v0.006
	c0.086,0,0.172-0.004,0.259-0.004s0.171,0.004,0.259,0.004v-0.006C304.731,443.691,350.168,402.75,350.168,337.705z"/>
<path fill="#F5E0CD" d="M315.439,221.896c-0.21,0-0.418,0.023-0.626,0.059c-4.467-40.94,2.949-72.488-66.493-72.488
	c-64.817,0-62.026,31.548-66.494,72.488c-0.206-0.036-0.414-0.059-0.625-0.059c-4.029,0-7.295,6.78-7.295,15.142
	c0,8.363,3.266,15.142,7.295,15.142c0.804,0,1.578-0.273,2.302-0.773c9.583,37.713,46.736,65.947,64.817,65.947
	c18.864,0,55.426-28.221,64.854-65.922c0.712,0.484,1.473,0.748,2.265,0.748c4.029,0,7.296-6.779,7.296-15.142
	C322.735,228.676,319.469,221.896,315.439,221.896z"/>
<g>
	<ellipse fill="#EFEEEE" cx="218.79" cy="236.143" rx="8.586" ry="7.031"/>
	<circle fill="#4A3222" cx="219.021" cy="238.212" r="5.569"/>
	<circle fill="#EFEEEE" cx="219.021" cy="241.384" r="2.172"/>
</g>
<g>
	<ellipse fill="#EFEEEE" cx="277.853" cy="236.212" rx="8.586" ry="7.031"/>
	<circle fill="#4A3222" cx="278.085" cy="238.281" r="5.569"/>
	<circle fill="#EFEEEE" cx="278.084" cy="241.453" r="2.172"/>
</g>
<path fill="#E9BE9A" d="M251.686,265.67c-4.627,0-8.444-3.818-9.023-8.764c-0.05,0.43-0.079,0.863-0.079,1.307
	c0,5.561,4.076,10.068,9.102,10.068c5.027,0,9.103-4.508,9.103-10.068c0-0.443-0.028-0.877-0.079-1.307
	C260.131,261.852,256.313,265.67,251.686,265.67z"/>
<path fill="#E9CEB9" d="M315.439,221.896c-0.21,0-0.418,0.023-0.626,0.059c-0.822-33.188-3.538-57.084-27.526-66.954
	c17.463,18.369,10.347,42.783,10.347,71.306c0,39.921-21.272,74.429-52.15,90.835c0.989,0.139,1.938,0.211,2.837,0.211
	c18.864,0,55.426-28.221,64.854-65.922c0.712,0.484,1.473,0.748,2.265,0.748c4.029,0,7.296-6.779,7.296-15.142
	C322.735,228.676,319.469,221.896,315.439,221.896z"/>
<path fill="#F6D964" d="M311.458,337.705l-16.545,0.141c-1.456,0-2.869-0.188-4.222-0.527
	c-5.079,18.949-21.894,32.863-41.854,32.863c-20.053,0-36.929-14.043-41.923-33.127c-1.638,0.514-3.38,0.791-5.187,0.791
	l-16.543-0.141h-38.71c0,65.045,45.436,105.986,101.589,106.238v0.006c0.086,0,0.172-0.004,0.259-0.004s0.171,0.004,0.259,0.004
	v-0.006c56.152-0.252,101.588-41.193,101.588-106.238H311.458z"/>
<path fill="#C9937B" d="M255.311,282.555l-3.625,0.752l-3.624-0.752c0,0-14.578,0.914-18.684,3.574c0,0,7.179,7.9,15.371,8.662
	c2.461,0.23,4.518,0.314,6.507,0.33v0.002c0.144,0,0.287,0,0.43,0c0.145,0,0.288,0,0.432,0v-0.002c1.987-0.016,4.045-0.1,6.507-0.33
	c8.191-0.762,15.371-8.662,15.371-8.662C269.889,283.469,255.311,282.555,255.311,282.555z"/>
<g>
	<path fill="#4B423B" d="M284.973,128.41l0.461-0.296C285.434,128.114,283.184,125.554,284.973,128.41z"/>
</g>
<path fill="#4B423B" d="M203.823,179.112c10.368-6.142,28.881,9.866,44.338,10.282c15.458,0.416,40.194-22.638,49.176-15.45
	c6.446,5.156,9.713,33.001,11.817,48.815l6.116-0.173c0,0,6.009-80.43-1.285-91.583c-7.293-11.153-21.028-8.403-26.182-17.369
	c-1.026-1.786,2.782-9.476,2.344-10.319l-8.332,5.995l0.369-11.346l-9.336,11.448l-0.688-16.569c0,0-4.667,8.396-5.44,15.778
	c-0.774,7.383-53.322,6.638-73.57,22.381s-10.612,49.289-11.225,91.354l7.197,1.295C190.28,211.672,195.708,183.92,203.823,179.112z
	"/>
<g id="Layer_2">
</g>
<g id="Layer_3">
</g>
<path fill="#D35728" d="M200.508,496.385"/>
<g>
	<path fill="#BFC1C3" d="M109.034,354.637v69.011c0,13.411,3.672,18.327,3.672,18.327l48.134,16.375l-17.528-128.004h-22.87"/>
	<polygon fill="#BFC1C3" points="216.221,330.346 137.331,330.346 164.661,471.17 249.961,471.17 249.961,358.737 	"/>
</g>
<g>
	<path fill="#BFC1C3" d="M349.252,332.218h22.868l11.406,24.203v68.764c0,13.366-4.444,18.242-4.444,18.242l-44.886,12.147
		L349.252,332.218z"/>
	<polygon fill="#BFC1C3" points="279.763,332.218 354.475,332.218 331.325,473.041 246.024,473.041 246.024,360.607 	"/>
</g>
<g>
	<path fill="#0C181F" d="M250.8,382.913c-1.028,1.028-2.695,1.028-3.723,0l-9.926-9.926c-1.028-1.029-1.031-2.695,0-3.726
		l9.926-9.927c1.028-1.028,2.694-1.028,3.723,0l9.927,9.927c1.03,1.028,1.03,2.694,0,3.726L250.8,382.913z"/>
	<path fill="#172935" d="M248.167,380.281c-1.028,1.027-2.694,1.027-3.722,0l-9.928-9.927c-1.028-1.029-1.029-2.695,0-3.726
		l9.928-9.927c1.027-1.027,2.693-1.027,3.722,0l9.93,9.927c1.025,1.028,1.027,2.694,0,3.726L248.167,380.281z"/>
	<path fill="#0C181F" d="M252.187,384.465c-3.247-3.414-7.692-0.863-8.72,0.165l-11.581,93.995
		c-1.028,1.027,1.603,2.694,2.632,3.724l12.56,6.181c1.028,1.027,2.694,1.027,3.723,0l12.561-6.181
		c1.028-1.026,3.663-2.692,2.634-3.724L252.187,384.465z"/>
	<path fill="#172935" d="M249.159,382.928c-1.029-1.027-5.059-0.863-6.086,0.164l-14.214,93.995
		c-1.028,1.028,1.603,2.695,2.633,3.727l12.56,6.178c1.027,1.028,2.694,1.028,3.722,0l12.561-6.178
		c1.028-1.028,3.661-2.694,2.633-3.727L249.159,382.928z"/>
</g>
<g>
	<polygon fill="#A3AAB2" points="185.395,330.354 204.545,325.278 247.76,356.67 215.955,386.584 	"/>
	<polygon fill="#BFC1C3" points="188.919,329.417 204.545,325.278 244.955,354.983 217.346,379.72 	"/>
</g>
<g>
	<polygon fill="#A3AAB2" points="308.719,330.354 289.565,325.278 246.353,356.67 278.157,386.584 	"/>
	<polygon fill="#BFC1C3" points="305.193,329.417 289.565,325.278 249.157,354.983 276.766,379.72 	"/>
</g>
<path fill="#A3AAB2" d="M222.641,454.162c0,1.532-1.294,2.773-2.892,2.773h-39.756c-1.597,0-2.893-1.241-2.893-2.773v-35.606
	c0-1.533,1.296-2.776,2.893-2.776h39.756c1.598,0,2.892,1.243,2.892,2.776V454.162z"/>
<path fill="#BFC1C3" d="M218.964,450.794c0,1.455-1.178,2.633-2.633,2.633h-36.187c-1.454,0-2.632-1.178-2.632-2.633V417.01
	c0-1.454,1.179-2.632,2.632-2.632h36.187c1.455,0,2.633,1.178,2.633,2.632V450.794z"/>
<polygon fill="#A3AAB2" points="158.333,458.333 146.519,452.294 146.517,384.617 "/>
<polygon fill="#A3AAB2" points="345.174,454.399 356.988,448.36 356.99,380.684 "/>
<g>
	<circle fill="none" stroke="#404041" stroke-width="3" stroke-miterlimit="10" cx="221.092" cy="230.257" r="21.927"/>
	<circle fill="none" stroke="#404041" stroke-width="3" stroke-miterlimit="10" cx="277.052" cy="230.588" r="21.927"/>
	<path fill="none" stroke="#404041" stroke-width="3" stroke-miterlimit="10" d="M243.525,228.562
		c4.232-2.342,7.87-2.205,11.721-0.295"/>
	<path fill="none" stroke="#404041" stroke-width="3" stroke-miterlimit="10" d="M298.979,231.954
		c8.139-3.71,12.371-5.121,14.193-4.962"/>
	<path fill="none" stroke="#404041" stroke-width="3" stroke-miterlimit="10" d="M199.241,230.555
		c-9.688-3.709-14.724-5.12-16.893-4.961"/>
</g>
<g>
	<path fill="#EFD4BD" d="M203.167,440.056c-5.229-4.038-17.497,0.336-23.17,5.002L163.75,464.5c-5.669,4.665,2.5,4.5,11,8.541l0,0
		c5.229,4.034,11.163,8.104,16.83,3.439l8.928-16.715C203.167,453.427,208.396,444.094,203.167,440.056L203.167,440.056z"/>
	<path fill="#EFD4BD" d="M179.031,440.775c0,11.312,19.34,19.908,43.199,19.908c23.858,0,43.198-8.916,43.198-19.908
		c0-19.916-27.155-1.629-47.199-13.75C196.764,414.042,179.031,417.115,179.031,440.775z"/>
	<path fill="#EFD4BD" d="M196.467,434.23c13.305-18.507,12.749-20.713,21.297-20.713c8.549,0,9.649-9.104-3.035-8.961
		c-12.68,0.141-37.14,22.864-31.893,29.748"/>
</g>
<g>
	<path fill="#F5E0CD" d="M294.063,436.673c5.152-4.064,12.775-0.782,18.366,3.914L332.25,462c5.586,4.696-1.098,3.934-6.25,8l0,0
		c-5.15,4.061-14.915,11.176-20.5,6.48l-18.771-21.195C281.147,450.587,288.911,440.736,294.063,436.673L294.063,436.673z"/>
	<path fill="#F5E0CD" d="M317.631,440.775c0,11.312-19.334,19.908-43.2,19.908c-23.85,0-43.191-8.916-43.191-19.908
		c0-19.916,27.147-1.629,47.192-13.75C299.898,414.042,317.631,417.115,317.631,440.775z"/>
	<path fill="#F5E0CD" d="M300.197,434.23c-13.3-18.507-12.745-20.713-21.294-20.713s-9.647-9.104,3.03-8.961
		c12.688,0.141,37.138,22.864,31.891,29.748"/>
</g>
<g>
	<path fill="#FFFFFF" d="M249.72,17.62c-128.07,0-231.89,103.82-231.89,231.9c0,128.07,103.82,231.89,231.89,231.89
		c128.08,0,231.9-103.82,231.9-231.89C481.62,121.44,377.8,17.62,249.72,17.62z M249.72,471.41
		c-122.35,0-221.89-99.54-221.89-221.89c0-122.36,99.54-221.9,221.89-221.9c122.36,0,221.9,99.54,221.9,221.9
		C471.62,371.87,372.08,471.41,249.72,471.41z"/>
	<path fill="none" d="M471.62,249.52c0,122.35-99.54,221.89-221.9,221.89c-122.35,0-221.89-99.54-221.89-221.89
		c0-122.36,99.54-221.9,221.89-221.9C372.08,27.62,471.62,127.16,471.62,249.52z"/>
	<path fill="#7F8C8D" d="M420.77,78.47C375.08,32.78,314.34,7.62,249.72,7.62c-64.61,0-125.35,25.16-171.04,70.85
		C32.99,124.16,7.83,184.9,7.83,249.52c0,64.61,25.16,125.36,70.85,171.04c45.69,45.69,106.43,70.851,171.04,70.851
		c64.62,0,125.36-25.16,171.049-70.851c45.69-45.68,70.851-106.43,70.851-171.04C491.62,184.9,466.46,124.16,420.77,78.47z
		 M249.72,471.41c-122.35,0-221.89-99.54-221.89-221.89c0-122.36,99.54-221.9,221.89-221.9c122.36,0,221.9,99.54,221.9,221.9
		C471.62,361.188,367.179,471.41,249.72,471.41z"/>
</g>
<polygon fill="#404041" points="194.75,436.022 220.5,421.475 274.436,421.475 300.25,436.357 "/>
<path fill="#58595B" d="M301.563,438.962c0,2.188-1.797,3.963-4.014,3.963H197.452c-2.217,0-4.015-1.774-4.015-3.963l0,0
	c0-2.189,1.797-3.964,4.015-3.964h100.097C299.766,434.998,301.563,436.772,301.563,438.962L301.563,438.962z"/>
<polygon fill="#BBBDBF" points="205.403,433.902 289.5,433.902 281.5,428.916 214,428.916 "/>
<g>
	<rect x="249.521" y="423.591" fill="#6D6E70" width="12.354" height="3.269"/>
	<polygon fill="#929497" points="261.874,423.591 259.503,421.954 251.771,421.954 249.521,423.591 	"/>
</g>
<g>
	<rect x="265.848" y="423.287" fill="#6D6E70" width="12.354" height="3.27"/>
	<polygon fill="#929497" points="278.201,423.287 275.83,421.651 268.098,421.651 265.848,423.287 	"/>
</g>
<g>
	<rect x="233.29" y="423.591" fill="#6D6E70" width="12.354" height="3.269"/>
	<polygon fill="#929497" points="245.643,423.591 243.272,421.954 235.54,421.954 233.29,423.591 	"/>
</g>
<g>
	<rect x="217.319" y="423.797" fill="#6D6E70" width="12.354" height="3.269"/>
	<polygon fill="#929497" points="229.672,423.797 227.301,422.16 219.569,422.16 217.319,423.797 	"/>
</g>
</svg>
