<?xml version="1.0" encoding="utf-8"?>
<!-- Generator: Adobe Illustrator 16.2.0, SVG Export Plug-In . SVG Version: 6.00 Build 0)  -->
<!DOCTYPE svg PUBLIC "-//W3C//DTD SVG 1.1//EN" "http://www.w3.org/Graphics/SVG/1.1/DTD/svg11.dtd">
<svg version="1.1" id="Layer_1" xmlns="http://www.w3.org/2000/svg" xmlns:xlink="http://www.w3.org/1999/xlink" x="0px" y="0px"
	 width="500px" height="500px" viewBox="0 0 500 500" enable-background="new 0 0 500 500" xml:space="preserve">
<circle fill="#35495E" cx="250" cy="250" r="232.154"/>
<ellipse fill="#1C2F3F" cx="250" cy="387.813" rx="150.934" ry="15.05"/>
<g id="Layer_2">
</g>
<g id="Layer_3">
</g>
<g>
	<path fill="#FFFFFF" d="M249.72,17.62c-128.07,0-231.89,103.82-231.89,231.9c0,128.07,103.82,231.89,231.89,231.89
		c128.08,0,231.9-103.82,231.9-231.89C481.62,121.44,377.8,17.62,249.72,17.62z M249.72,471.41
		c-122.35,0-221.89-99.54-221.89-221.89c0-122.36,99.54-221.9,221.89-221.9c122.36,0,221.9,99.54,221.9,221.9
		C471.62,371.87,372.08,471.41,249.72,471.41z"/>
	<path fill="none" d="M471.62,249.52c0,122.35-99.54,221.89-221.9,221.89c-122.35,0-221.89-99.54-221.89-221.89
		c0-122.36,99.54-221.9,221.89-221.9C372.08,27.62,471.62,127.16,471.62,249.52z"/>
	<path fill="#7F8C8D" d="M420.77,78.47C375.08,32.78,314.34,7.62,249.72,7.62c-64.61,0-125.35,25.16-171.04,70.85
		C32.99,124.16,7.83,184.9,7.83,249.52c0,64.61,25.16,125.36,70.85,171.04c45.69,45.69,106.43,70.851,171.04,70.851
		c64.62,0,125.36-25.16,171.049-70.851c45.69-45.68,70.851-106.43,70.851-171.04C491.62,184.9,466.46,124.16,420.77,78.47z
		 M249.72,471.41c-122.35,0-221.89-99.54-221.89-221.89c0-122.36,99.54-221.9,221.89-221.9c122.36,0,221.9,99.54,221.9,221.9
		C471.62,371.87,372.08,471.41,249.72,471.41z"/>
</g>
<path fill="#D0D2D3" d="M248.208,256.881"/>
<path fill="#D0D2D3" d="M247.864,256.882"/>
<ellipse fill="#F1F1F2" cx="425.651" cy="384.594" rx="0.77" ry="1"/>
<g>
	<path fill="#F0EFEF" d="M239.113,164.389c0.066-0.659,0.101-1.327,0.101-2.003V99.751c0-10.976-8.898-19.875-19.875-19.875
		c-10.977,0-19.875,8.898-19.875,19.875v62.635c0,0.821,0.056,1.629,0.152,2.424c-14.736,2.918-25.849,15.912-25.849,31.505v160.062
		c0,17.741,14.382,32.122,32.122,32.122h29.708c17.74,0,32.124-14.381,32.124-32.122V196.316
		C267.723,179.764,255.2,166.141,239.113,164.389z"/>
	<rect x="199.465" y="97.788" fill="#D0D2D3" width="39.749" height="7.479"/>
	<path fill="#D0D2D3" d="M239.113,164.544c0.066-0.658,0.101-1.326,0.101-2.001v-58.577c0-10.968-8.898-19.86-19.875-19.86
		c-5.265,0-10.049,2.05-13.604,5.39c8.213,2.331,14.206,9.591,14.206,18.19v55.797c0,0.646-0.035,1.284-0.101,1.913
		c16.087,1.672,28.608,14.682,28.608,30.488V348.73c0,16.941-14.382,30.674-32.122,30.674h-29.708c-1.109,0-2.205-0.054-3.285-0.157
		c5.8,5.72,13.766,9.253,22.559,9.253h29.708c17.74,0,32.124-14.37,32.124-32.101V196.449
		C267.723,179.908,255.2,166.294,239.113,164.544z"/>
	<path fill="#231F20" d="M242.627,94.935c0,2.772-3.26,5.019-7.283,5.019h-32.412c-4.022,0-7.283-2.247-7.283-5.019V84.896
		c0-2.772,3.261-5.019,7.283-5.019h32.412c4.023,0,7.283,2.247,7.283,5.019V94.935z"/>
	<path fill="#EB6A56" d="M267.723,294.881c0,4.435-3.598,8.031-8.031,8.031h-77.893c-4.435,0-8.03-3.597-8.03-8.031v-50.548
		c0-4.435,3.595-8.03,8.03-8.03h77.893c4.434,0,8.031,3.595,8.031,8.03V294.881z"/>
</g>
<g>
	<path fill="#D0D2D3" d="M312.311,380.84c0,1.707-1.667,3.091-3.723,3.091l0,0c-2.056,0-3.723-1.384-3.723-3.091v-51.831
		c0-1.706,1.667-3.091,3.723-3.091l0,0c2.056,0,3.723,1.385,3.723,3.091V380.84z"/>
	<polygon fill="#D0D2D3" points="303.76,380.84 313.418,380.84 342.111,387.798 276.491,387.798 	"/>
	<path fill="#F0EFEF" d="M334.445,267.73c7.985,23.913,17.222,69.188-26.406,69.188c-39.111,0-34.632-45.53-25.916-69.188"/>
	<path fill="#A38F84" d="M337.582,291.269c1.474,5.96,9.137,42.796-28.834,42.796c-34.039,0-32.257-37.09-28.765-42.796"/>
	<circle fill="#DDCEC7" cx="290.147" cy="313.915" r="1.505"/>
	<circle fill="#DDCEC7" cx="318.5" cy="315.419" r="1.504"/>
	<circle fill="#DDCEC7" cx="308.588" cy="300.329" r="1.504"/>
	<circle fill="#DDCEC7" cx="323.486" cy="292.317" r="1.504"/>
	<circle fill="#DDCEC7" cx="282.836" cy="290.813" r="1.504"/>
	<circle fill="#DDCEC7" cx="286.759" cy="292.317" r="1.504"/>
	<circle fill="#DDCEC7" cx="337.581" cy="292.773" r="1.505"/>
	<circle fill="#DDCEC7" cx="307.083" cy="292.773" r="1.505"/>
</g>
</svg>
