<?xml version="1.0" encoding="utf-8"?>
<!-- Generator: Adobe Illustrator 16.2.0, SVG Export Plug-In . SVG Version: 6.00 Build 0)  -->
<!DOCTYPE svg PUBLIC "-//W3C//DTD SVG 1.1//EN" "http://www.w3.org/Graphics/SVG/1.1/DTD/svg11.dtd">
<svg version="1.1" id="Layer_1" xmlns="http://www.w3.org/2000/svg" xmlns:xlink="http://www.w3.org/1999/xlink" x="0px" y="0px"
	 width="500px" height="500px" viewBox="0 0 500 500" enable-background="new 0 0 500 500" xml:space="preserve">
<circle fill="#35495E" cx="247.507" cy="249.516" r="221.895"/>
<ellipse fill="#1C2F3F" cx="250" cy="381.869" rx="144.564" ry="11.324"/>
<g id="Layer_2">
</g>
<g id="Layer_3">
</g>
<g>
	<path fill="#FFFFFF" d="M249.72,17.62c-128.07,0-231.89,103.82-231.89,231.9c0,128.07,103.82,231.89,231.89,231.89
		c128.08,0,231.9-103.82,231.9-231.89C481.62,121.44,377.8,17.62,249.72,17.62z M249.72,471.41
		c-122.35,0-221.89-99.54-221.89-221.89c0-122.36,99.54-221.9,221.89-221.9c122.36,0,221.9,99.54,221.9,221.9
		C471.62,371.87,372.08,471.41,249.72,471.41z"/>
	<path fill="none" d="M471.62,249.52c0,122.35-99.54,221.89-221.9,221.89c-122.35,0-221.89-99.54-221.89-221.89
		c0-122.36,99.54-221.9,221.89-221.9C372.08,27.62,471.62,127.16,471.62,249.52z"/>
	<path fill="#7F8C8D" d="M420.77,78.47C375.08,32.78,314.34,7.62,249.72,7.62c-64.61,0-125.35,25.16-171.04,70.85
		C32.99,124.16,7.83,184.9,7.83,249.52c0,64.61,25.16,125.36,70.85,171.04c45.69,45.69,106.43,70.851,171.04,70.851
		c64.62,0,125.36-25.16,171.049-70.851c45.69-45.68,70.851-106.43,70.851-171.04C491.62,184.9,466.46,124.16,420.77,78.47z
		 M249.72,471.41c-122.35,0-221.89-99.54-221.89-221.89c0-122.36,99.54-221.9,221.89-221.9c122.36,0,221.9,99.54,221.9,221.9
		C471.62,371.87,372.08,471.41,249.72,471.41z"/>
</g>
<path fill="#D0D2D3" d="M254.981,320.082"/>
<path fill="#D0D2D3" d="M254.684,320.083"/>
<g>
	<g>
		<path fill="#3B2314" d="M145.32,276.915L145.32,276.915c0-43.64,10.489-79.017,23.428-79.017h150.183
			c12.938,0,23.429,35.377,23.429,79.017l0,0"/>
		<path fill="#281308" d="M159.25,276.915L159.25,276.915c0-37.154,8.078-67.272,19.395-67.272h130.248
			c11.315,0,19.396,30.118,19.396,67.272l0,0"/>
	</g>
	<polyline fill="#281308" points="84.477,327.137 94.876,319.291 101.992,327.137 	"/>
	<polyline fill="#281308" points="414.051,327.818 403.651,319.974 396.536,327.818 	"/>
	<path fill="#2C82C9" d="M401.928,300.633c0,0.329-2.45,0.597-5.474,0.597H98.708c-3.023,0-5.473-0.268-5.473-0.597l37.583-15.823
		c0-0.329,19.235-9.853,22.258-9.853h181.713c3.022,0,25.906,8.793,25.906,9.122L401.928,300.633z"/>
	<path fill="#2969B0" d="M403.387,322.598c0,2.506-2.426,4.539-5.417,4.539H96.826c-2.991,0-5.417-2.033-5.417-4.539v-19.02
		c0-2.506,2.425-4.538,5.417-4.538H397.97c2.991,0,5.417,2.032,5.417,4.538V322.598z"/>
	<polygon fill="#3B2314" points="84.477,327.137 84.477,381.869 109.654,381.869 109.654,354.503 387.149,354.503 387.149,381.869 
		413.604,381.869 413.604,327.137 	"/>
	<g>
		<ellipse fill="#2969B0" cx="195.211" cy="278.605" rx="45.419" ry="3.65"/>
		<path fill="#D1D5D8" d="M242.747,268.865c0,8.323-21.298,8.048-47.571,8.048s-47.574,0.275-47.574-8.048
			s21.301-15.07,47.574-15.07S242.747,260.542,242.747,268.865z"/>
	</g>
	<g>
		<ellipse fill="#2969B0" cx="292.545" cy="278.605" rx="45.419" ry="3.65"/>
		<path fill="#D1D5D8" d="M340.081,268.865c0,8.323-21.299,8.048-47.571,8.048s-47.574,0.275-47.574-8.048
			s21.301-15.07,47.574-15.07S340.081,260.542,340.081,268.865z"/>
	</g>
</g>
</svg>
