<?xml version="1.0" encoding="utf-8"?>
<!-- Generator: Adobe Illustrator 16.2.0, SVG Export Plug-In . SVG Version: 6.00 Build 0)  -->
<!DOCTYPE svg PUBLIC "-//W3C//DTD SVG 1.1//EN" "http://www.w3.org/Graphics/SVG/1.1/DTD/svg11.dtd">
<svg version="1.1" id="Layer_1" xmlns="http://www.w3.org/2000/svg" xmlns:xlink="http://www.w3.org/1999/xlink" x="0px" y="0px"
	 width="500px" height="500px" viewBox="0 0 500 500" enable-background="new 0 0 500 500" xml:space="preserve">
<circle fill="#EFC419" cx="249.725" cy="244.685" r="231.799"/>
<g id="Layer_2">
</g>
<g id="Layer_3">
</g>
<path fill="#D35728" d="M200.508,496.385"/>
<g>
	<path fill="#4B423B" d="M291.992,115.934l0.465-0.298C292.457,115.636,290.188,113.054,291.992,115.934z"/>
</g>
<path fill="#FFFFFF" d="M249.72,17.62c-128.07,0-231.89,103.82-231.89,231.9c0,128.07,103.82,231.89,231.89,231.89
	c128.08,0,231.9-103.82,231.9-231.89C481.62,121.44,377.8,17.62,249.72,17.62z M249.72,471.41c-122.35,0-221.89-99.54-221.89-221.89
	c0-122.36,99.54-221.9,221.89-221.9c122.36,0,221.9,99.54,221.9,221.9C471.62,371.87,372.08,471.41,249.72,471.41z"/>
<path fill="none" d="M471.62,249.52c0,122.35-99.54,221.89-221.9,221.89c-122.35,0-221.89-99.54-221.89-221.89
	c0-122.36,99.54-221.9,221.89-221.9C372.08,27.62,471.62,127.16,471.62,249.52z"/>
<g>
	<path fill="#E9CEB9" d="M355.588,278.512c0-0.012,0-0.022,0-0.034h-0.18c-3.601-0.704-7.352-1.088-11.213-1.088H293.42
		c-4.344-1.723-7.837-5.131-9.671-9.418v-31.129h-30.598h-0.522H222.03v31.129c-1.834,4.287-5.326,7.695-9.671,9.418h-49.914
		c-3.861,0-7.612,0.384-11.213,1.088h-1.04c0,0.068,0.002,0.136,0.002,0.204c-20.834,4.479-36.215,20.109-36.215,38.708L115.5,446.5
		c0.666-2,48.077,18.445,49,18L344,459c38.738,0.257,63.689-35.332,63.022-35.999L392.661,317.39
		C392.661,298.538,376.855,282.742,355.588,278.512z"/>
	<path fill="#F5E0CD" d="M320.568,161.703c-0.212,0-0.422,0.021-0.629,0.059c-4.506-41.283,15.741-89.452-67.05-89.452
		c-80.231,0-62.544,48.169-67.049,89.452c-0.208-0.037-0.417-0.059-0.63-0.059c-4.063,0-7.355,6.834-7.355,15.269
		c0,8.432,3.293,15.268,7.355,15.268c0.812,0,1.591-0.277,2.321-0.779c9.663,38.025,47.126,66.496,65.358,66.496
		c19.02,0,55.888-28.457,65.394-66.471c0.719,0.488,1.486,0.754,2.284,0.754c4.062,0,7.356-6.836,7.356-15.268
		C327.925,168.537,324.63,161.703,320.568,161.703z"/>
	<g>
		<ellipse fill="#EFEEEE" cx="227.144" cy="172.499" rx="11.512" ry="9.428"/>
		<circle fill="#865942" cx="227.455" cy="172.593" r="7.467"/>
		<circle fill="#EFEEEE" cx="227.456" cy="175.505" r="2.913"/>
	</g>
	<g>
		<ellipse fill="#EFEEEE" cx="280.67" cy="172.804" rx="11.512" ry="9.426"/>
		<circle fill="#865942" cx="280.981" cy="172.897" r="7.468"/>
		<circle fill="#EFEEEE" cx="280.981" cy="175.808" r="2.913"/>
	</g>
	<path fill="#E9BE9A" d="M256.282,205.843c-4.664,0-8.515-3.852-9.099-8.836c-0.05,0.43-0.078,0.869-0.078,1.313
		c0,5.609,4.108,10.154,9.177,10.154c5.07,0,9.179-4.545,9.179-10.154c0-0.443-0.029-0.883-0.078-1.313
		C264.799,201.991,260.949,205.843,256.282,205.843z"/>
	<path fill="#E9CEB9" d="M320.568,161.703c-0.212,0-0.422,0.021-0.629,0.059c-3.533-32.371,10.527-60.954-45.886-68.869
		c17.608,18.523,28.563,44.496,28.563,73.257c0,40.253-21.452,75.052-52.587,91.595c0.997,0.139,1.954,0.211,2.861,0.211
		c19.02,0,55.888-28.457,65.394-66.471c0.719,0.488,1.486,0.754,2.284,0.754c4.062,0,7.356-6.836,7.356-15.268
		C327.925,168.537,324.63,161.703,320.568,161.703z"/>
	<path fill="#C9937B" d="M259.938,222.868l-3.653,0.758l-3.655-0.758c0,0-14.698,0.922-18.841,3.604c0,0,7.24,7.965,15.5,8.732
		c2.482,0.232,4.557,0.318,6.562,0.334v0.002c0.145,0,0.29,0,0.435-0.002c0.144,0.002,0.29,0.002,0.434,0.002v-0.002
		c2.005-0.016,4.079-0.102,6.561-0.334c8.261-0.768,15.5-8.732,15.5-8.732C274.638,223.79,259.938,222.868,259.938,222.868z"/>
	<path fill="#4B423B" d="M185.211,161.703l7.284,5.486l-3.642-54.565l54.034-16.334l13.624,14.944l8.949-14.944l48.325,19.811
		l1.391,51.088l4.763-5.428l15.741-62.692c0,0-60.095-40.313-79.397-41.009c-19.304-0.695-90.201,41.009-90.201,41.009
		l17.841,62.872"/>
	<path fill="#4B423B" d="M313.897,195.214l-8.634,25.426c0,0-5.361,4.404-12.859,9.75c-5.697-4.387-7.577-14.66-9.775-14.895
		c-1.936-0.205-12.333-4.629-26.346-5.283v-0.002c-0.002,0-0.005,0.002-0.008,0.002s-0.005-0.002-0.007-0.002v0.002
		c-13.493,0.654-23.891,5.078-25.824,5.283c-2.658,0.283-4.85,15.23-13.878,16.729c-8.609-6.135-15.822-11.584-15.822-11.584
		l-8.046-25.426l-5.166-3.754l6.183,38.941l50.551,34.928h8.596h0.349h8.674l50.989-34.928l6.236-38.941L313.897,195.214z
		 M256.974,247.356c-0.027-0.424-0.065-0.629-0.114-0.533c-0.037,0.072-0.099,0.158-0.173,0.244
		c-0.076-0.086-0.138-0.172-0.176-0.244c-0.05-0.096-0.087,0.109-0.114,0.537c-1.002,0.863-3.543,2.02-8.481,1.809
		c-1.705-0.072-9.514-2.34-14.617-5.564c-0.4-2.662-2.641-18.467,0.49-19.42c8.405-2.563,15.96-3.613,22.487-3.793
		c7.051,0.18,14.603,1.23,23.008,3.793c2.234,0.68,1.734,8.918,1.119,14.555c-5.801,7.166-12.368,10.324-14.87,10.43
		C260.543,249.38,257.98,248.22,256.974,247.356z"/>
	<ellipse fill="#E9CEB9" cx="138.144" cy="301.116" rx="31.938" ry="30"/>
	<ellipse fill="#E9CEB9" cx="368.619" cy="301.116" rx="31.938" ry="30"/>
	<path fill="#28324E" d="M316.109,277.39h-9.584c0.604,3.144,0.933,6.385,0.933,9.703c0,28.473-23.281,51.554-52,51.554
		s-54.333-22.784-54.333-51.257c0-3.318-0.271-6.856,0.333-10h-8L161.5,278l8.356,99.383L173.5,468l83,14l80-14.5l0.035-90.998
		L349,277L316.109,277.39z"/>
	<polygon fill="#E4C2A9" points="175.522,327.001 114,430 157,456.5 202.522,352.501 	"/>
	<polygon fill="#E4C2A9" points="335.022,312.001 407.022,422.501 358.5,458 304.522,322.501 	"/>
	<g>
		<path fill="#EA6A56" d="M338.227,316.163c-21.33,15.049-49.646,11.41-64.679-16.09c-15.033-27.499-4.922-52.205,11.835-64.496
			c16.762-12.296,36.102-18.75,42.263-1.277c11.493,32.595-0.937,10.354,3.662,1.724
			C341.111,217.658,381.718,285.46,338.227,316.163z"/>
		<path fill="#D04841" d="M281.322,294.994c-15.033-27.5-12.696-47.126,4.061-59.417c0.416-0.309,0.84-0.607,1.261-0.908
			c-3.798,1.958-7.637,4.388-11.353,7.113c-16.756,12.293-19.532,31.91-4.493,59.408c15.03,27.5,36.011,36.229,57.338,21.178
			c0.692-0.489,1.36-1.012,2.014-1.551C310.189,329.965,294.524,319.142,281.322,294.994z"/>
		<polygon fill="#B7322F" points="304.771,331.083 311.01,343.185 347.238,323.312 341.411,311.112 		"/>
	</g>
	<g>
		<path fill="#D04841" d="M235.254,333.939c7.836-0.641,21.892-5.263,22.766,6.827c0.875,12.09-16.632,19.167-34.357,23.221
			c-17.726,4.055-18.719,7.611-18.719,7.611l17.189-28.77L235.254,333.939z"/>
		
			<rect x="153.287" y="359.375" transform="matrix(0.804 0.5947 -0.5947 0.804 252.5347 -32.342)" fill="#B7322F" width="44.068" height="14.95"/>
		<path fill="#EA6A56" d="M197.479,373.944c4.915,2.204,25.063-15.077,31.465-30.369c5.642-13.477,26.15-12.126,31.748-10.846
			c5.599,1.28,28.167-29.23-17.585-45.907c-51.748-18.863-83.334,36.344-81.056,60.915"/>
	</g>
</g>
<path fill="#7F8C8D" d="M420.77,78.47C375.08,32.78,314.34,7.62,249.72,7.62c-64.61,0-125.35,25.16-171.04,70.85
	C32.99,124.16,7.83,184.9,7.83,249.52c0,64.61,25.16,125.36,70.85,171.04c45.69,45.69,106.43,70.851,171.04,70.851
	c64.62,0,125.36-25.16,171.049-70.851c45.69-45.68,70.851-106.43,70.851-171.04C491.62,184.9,466.46,124.16,420.77,78.47z
	 M249.72,471.41c-122.35,0-221.89-99.54-221.89-221.89c0-122.36,99.54-221.9,221.89-221.9c122.36,0,221.9,99.54,221.9,221.9
	C471.62,361.188,367.179,471.41,249.72,471.41z"/>
</svg>
