<?xml version="1.0" encoding="utf-8"?>
<!-- Generator: Adobe Illustrator 16.2.0, SVG Export Plug-In . SVG Version: 6.00 Build 0)  -->
<!DOCTYPE svg PUBLIC "-//W3C//DTD SVG 1.1//EN" "http://www.w3.org/Graphics/SVG/1.1/DTD/svg11.dtd">
<svg version="1.1" id="Layer_1" xmlns="http://www.w3.org/2000/svg" xmlns:xlink="http://www.w3.org/1999/xlink" x="0px" y="0px"
	 width="500px" height="500px" viewBox="0 0 500 500" enable-background="new 0 0 500 500" xml:space="preserve">
<path fill="#35495E" d="M249.333,19.594c-128.018,0-231.799,103.779-231.799,231.797c0,11.763,0.884,23.318,2.574,34.609h458.45
	c1.69-11.291,2.574-22.847,2.574-34.609C481.133,123.373,377.352,19.594,249.333,19.594z"/>
<path fill="#35495E" d="M18.085,284.999C34.794,396.601,131.055,482.188,247.31,482.188s212.516-85.587,229.225-197.188H18.085z"/>
<ellipse fill="#1C2F3F" cx="259.053" cy="280.651" rx="185.485" ry="63.7"/>
<g id="Layer_2">
</g>
<g id="Layer_3">
</g>
<g>
	<path fill="#FFFFFF" d="M249.72,17.62c-128.07,0-231.89,103.82-231.89,231.9c0,128.07,103.82,231.89,231.89,231.89
		c128.08,0,231.9-103.82,231.9-231.89C481.62,121.44,377.8,17.62,249.72,17.62z M249.72,471.41
		c-122.35,0-221.89-99.54-221.89-221.89c0-122.36,99.54-221.9,221.89-221.9c122.36,0,221.9,99.54,221.9,221.9
		C471.62,371.87,372.08,471.41,249.72,471.41z"/>
	<path fill="none" d="M471.62,249.52c0,122.35-99.54,221.89-221.9,221.89c-122.35,0-221.89-99.54-221.89-221.89
		c0-122.36,99.54-221.9,221.89-221.9C372.08,27.62,471.62,127.16,471.62,249.52z"/>
	<path fill="#7F8C8D" d="M420.77,78.47C375.08,32.78,314.34,7.62,249.72,7.62c-64.61,0-125.35,25.16-171.04,70.85
		C32.99,124.16,7.83,184.9,7.83,249.52c0,64.61,25.16,125.36,70.85,171.04c45.69,45.69,106.43,70.851,171.04,70.851
		c64.62,0,125.36-25.16,171.049-70.851c45.69-45.68,70.851-106.43,70.851-171.04C491.62,184.9,466.46,124.16,420.77,78.47z
		 M249.72,471.41c-122.35,0-221.89-99.54-221.89-221.89c0-122.36,99.54-221.9,221.89-221.9c122.36,0,221.9,99.54,221.9,221.9
		C471.62,371.87,372.08,471.41,249.72,471.41z"/>
</g>
<path fill="#D0D2D3" d="M254.981,320.082"/>
<path fill="#D0D2D3" d="M254.684,320.083"/>
<ellipse fill="#F1F1F2" cx="425.651" cy="384.594" rx="0.77" ry="1"/>
<image overflow="visible" width="1300" height="1300" xlink:href="B0C326A3.jpg"  transform="matrix(1 0 0 1 -7942 -7942)">
</image>
<g>
	<path fill="#F39D20" d="M226.495,223.744c0,0.063-0.08,0.113-0.178,0.113l0,0c-0.099,0-0.178-0.049-0.178-0.113l0,0
		c0-0.062,0.079-0.113,0.178-0.113l0,0C226.415,223.631,226.495,223.683,226.495,223.744L226.495,223.744z"/>
	<polygon fill="#E6E7E8" points="352.034,209.281 352.034,209.281 351.088,209.281 351.088,209.281 351.088,209.281 
		351.088,209.281 352.034,209.281 352.034,209.281 	"/>
	<path fill="#BBBDBF" d="M376.316,264.705c-4.74-22.353-11.846-14.8-28.899-15.405c-15.681-0.555-243.551,1.187-280.217,1.473
		c17.505,1.881,66.089,6.017,66.089,9.973c0,4.271-36.981,11.149-38.847,11.521c-4.767,0.944-8.982,1.094-12.684,0.675
		c18.774,16.309,48.403,34.267,88.008,31.943c34.335-2.018,57.264,29.743,80.587,21.188c10.795-3.96,24.78-6.746,38.855-13.346
		c7.107-3.328-45.067-12.562-44.593-15.883c0.18-1.255,9.06-5.619,20.812-10.291l-1.897,1.015
		c14.686,6.144,16.106,5.476,28.424,3.296c9.353-1.655-4.505-5.597-4.048-12.288c13.933-4.324,27.252-7.146,32.982-5.108
		c28.896,10.271,68.949,50.134,102.799,42.032C459.22,306.996,389.304,325.988,376.316,264.705z"/>
	<path fill="#E6E7E8" d="M425.462,186.583c-33.852-8.101-73.902,31.761-102.799,42.033c-14.292,5.079-65.376-16.01-65.851-19.334
		c-0.473-3.321,46.901-8.758,39.796-12.09c-18.56-8.697-34.774-12.65-48.129-15.152c-15.827-2.964-63.284,15.772-65.094,15.765
		c-58.75-0.225-105.643,33.832-117.96,53.468c0,0,0.826,0.005,2.384,0.019c-0.206-0.023-0.412-0.044-0.609-0.065
		c36.666-0.285,264.537-2.027,280.217-1.472c11.903,0.421,18.958-3.127,23.748,2.291c2.941-1.922,5.107-6.094,6.924-14.668
		C391.078,176.093,460.992,195.084,425.462,186.583z"/>
	<ellipse fill="#808184" cx="116.588" cy="236.168" rx="11.37" ry="7.249"/>
	<path fill="#808184" d="M174.568,243.019c5.47,6.141,8.096,11.984,7.313,19.78c-0.782,7.795-12.355,17.854-12.355,17.854
		s16.908-0.648,19.498-17.037C191.611,247.227,174.568,243.019,174.568,243.019z"/>
	<path fill="#808184" d="M156.796,248.925c4.162,4.641,5.993,8.953,4.893,14.537s-11.247,12.364-11.247,12.364
		s14.007,0.208,17.1-11.491C170.634,252.633,156.796,248.925,156.796,248.925z"/>
</g>
</svg>
