<?xml version="1.0" encoding="utf-8"?>
<!-- Generator: Adobe Illustrator 16.2.0, SVG Export Plug-In . SVG Version: 6.00 Build 0)  -->
<!DOCTYPE svg PUBLIC "-//W3C//DTD SVG 1.1//EN" "http://www.w3.org/Graphics/SVG/1.1/DTD/svg11.dtd">
<svg version="1.1" id="Layer_1" xmlns="http://www.w3.org/2000/svg" xmlns:xlink="http://www.w3.org/1999/xlink" x="0px" y="0px"
	 width="500px" height="500px" viewBox="0 0 500 500" enable-background="new 0 0 500 500" xml:space="preserve">
<circle fill="#35495E" cx="249.724" cy="249.486" r="231.739"/>
<ellipse fill="#1C2F3F" cx="255.324" cy="413.6" rx="109.676" ry="8.305"/>
<g id="Layer_2">
</g>
<g id="Layer_3">
</g>
<g>
	<path fill="#FFFFFF" d="M249.72,17.62c-128.07,0-231.89,103.82-231.89,231.9c0,128.07,103.82,231.89,231.89,231.89
		c128.08,0,231.9-103.82,231.9-231.89C481.62,121.44,377.8,17.62,249.72,17.62z M249.72,471.41
		c-122.35,0-221.89-99.54-221.89-221.89c0-122.36,99.54-221.9,221.89-221.9c122.36,0,221.9,99.54,221.9,221.9
		C471.62,371.87,372.08,471.41,249.72,471.41z"/>
	<path fill="none" d="M471.62,249.52c0,122.35-99.54,221.89-221.9,221.89c-122.35,0-221.89-99.54-221.89-221.89
		c0-122.36,99.54-221.9,221.89-221.9C372.08,27.62,471.62,127.16,471.62,249.52z"/>
	<path fill="#7F8C8D" d="M420.77,78.47C375.08,32.78,314.34,7.62,249.72,7.62c-64.61,0-125.35,25.16-171.04,70.85
		C32.99,124.16,7.83,184.9,7.83,249.52c0,64.61,25.16,125.36,70.85,171.04c45.69,45.69,106.43,70.851,171.04,70.851
		c64.62,0,125.36-25.16,171.049-70.851c45.69-45.68,70.851-106.43,70.851-171.04C491.62,184.9,466.46,124.16,420.77,78.47z
		 M249.72,471.41c-122.35,0-221.89-99.54-221.89-221.89c0-122.36,99.54-221.9,221.89-221.9c122.36,0,221.9,99.54,221.9,221.9
		C471.62,371.87,372.08,471.41,249.72,471.41z"/>
</g>
<path fill="#D0D2D3" d="M254.981,320.082"/>
<path fill="#D0D2D3" d="M254.684,320.083"/>
<g>
	<path fill="#E4C6B0" d="M268.587,267.255c0.423-3.664,2.736-6.656,5.783-7.994c0.33-10.573,2.789-46.922,3.204-53.03
		c0.008-0.288,0.024-0.582,0.061-0.881l2.159-28.819c0.41-3.419,3.822-6.251,7.502-5.512c1.262,0.253,4.231,3.141,3.821,6.562
		l-2.952,28.828c-0.035,0.295-0.084,0.576-0.138,0.858l-8.229,51.55c2.979,1.516-2.482,8.609-3.045,13.471
		c-0.611,5.295,4.969,7.756-0.051,7.27C271.687,279.069,267.975,272.548,268.587,267.255z"/>
	<path fill="#E4C6B0" d="M341.7,171.272h-10.342l-4.419,0.043c-1.917,0-3.563-1.349-4.272-3.272v-9.568h-8.105h-0.139h-8.105v9.568
		c-0.71,1.923-2.354,3.272-4.271,3.272l-4.42-0.043h-10.342c0,20.161,12.139,32.851,27.139,32.927l0.069,15.381
		c0.023,0-0.022-15.38,0-15.38c0.023,0-0.019,11.38,0.005,11.38l0.064-11.381C329.563,204.124,341.7,191.434,341.7,171.272z"/>
	<path fill="#E4C6B0" d="M287.284,171.272c1.199,10.43,0.592,29.975,3.833,33.642s8.241,20.667,8.241,23.667
		s37.049,1.333,37.049,1.333s-1.336-23.795,3.641-27.064l1.652-31.577H287.284z"/>
	<path fill="#F5E0CD" d="M332.371,133.583c-0.059,0-0.118,0.007-0.173,0.017c-1.244-12.416-9.052-21.987-18.5-21.987
		c-9.449,0-17.256,9.571-18.5,21.987c-0.057-0.01-0.115-0.017-0.174-0.017c-1.121,0-2.029,2.056-2.029,4.592
		c0,2.54,0.908,4.595,2.029,4.595c0.224,0,0.439-0.083,0.641-0.234c2.666,11.438,13.002,20.002,18.033,20.002
		c5.248,0,15.419-8.56,18.043-19.995c0.198,0.145,0.409,0.227,0.63,0.227c1.12,0,2.03-2.055,2.03-4.595
		C334.401,135.639,333.491,133.583,332.371,133.583z"/>
	<g>
		<ellipse fill="#EFEEEE" cx="305.701" cy="136.832" rx="2.283" ry="2.834"/>
		<ellipse fill="#4A3222" cx="305.763" cy="136.859" rx="1.48" ry="2.246"/>
		<ellipse fill="#EFEEEE" cx="305.762" cy="137.734" rx="0.577" ry="0.875"/>
	</g>
	<g>
		<ellipse fill="#EFEEEE" cx="318.873" cy="136.832" rx="2.282" ry="2.834"/>
		<ellipse fill="#4A3222" cx="318.935" cy="136.859" rx="1.48" ry="2.246"/>
		<ellipse fill="#EFEEEE" cx="318.934" cy="137.734" rx="0.578" ry="0.875"/>
	</g>
	<path fill="#EA6A56" d="M307.983,152.308c-0.08-1.093,2.523-1.61,3.352-0.863c0.828,0.748,0.039,0.69,0.631,0.058
		c0.591-0.633,0.67-1.898,5.102,0.106c1.589,0.719,2.98,0.469,2.902,0.354c-0.08-0.115-2.879,2.933-8.004,2.933
		C307.55,154.896,308.071,153.514,307.983,152.308z"/>
	<path fill="#E9BE9A" d="M310.953,145.432c-0.478-0.909-0.079-2.073,0.884-2.725c-0.092,0.037-0.188,0.079-0.277,0.126
		c-1.152,0.605-1.664,1.894-1.145,2.881c0.518,0.987,1.871,1.297,3.023,0.692c0.09-0.048,0.178-0.102,0.26-0.158
		C312.617,146.674,311.431,146.341,310.953,145.432z"/>
	<path fill="#F2DAC6" d="M332.371,133.583c-0.059,0-0.118,0.007-0.173,0.017c-0.977-9.737-5.988-17.719-12.661-20.715
		c4.858,5.573,7.881,13.384,7.881,22.036c0,12.11-5.92,22.579-14.511,27.553c0.276,0.041,0.541,0.064,0.791,0.064
		c5.248,0,15.419-8.56,18.043-19.995c0.198,0.145,0.409,0.227,0.63,0.227c1.12,0,2.03-2.055,2.03-4.595
		C334.401,135.639,333.491,133.583,332.371,133.583z"/>
	<path fill="#512E1B" d="M334.401,129.857c-1.461-9.196-6.006-17.538-13.124-19.877c1.479-1.601,2.401-3.734,2.505-6.076
		c0.352-7.977-4.1-8.979-9.158-8.979c-5.057,0-9.157,0-9.157,8.979c0,2.689,1.206,5.1,3.114,6.745
		c-17.588,5.685-25.498,28.846-6.393,52.127c18.484,22.529-14.671-23.369,2.143-28.028c13.957-3.866,17.303-6.314,18.049-7.443
		c-0.266,5.08,10.626,24.049,2.428,32.356C324.808,159.661,337.608,150.034,334.401,129.857z"/>
	<path fill="#ECD4C3" d="M360.267,267.255c-0.424-3.662-2.736-6.654-5.781-7.992c-0.33-10.576-2.789-46.922-3.205-53.032
		c-0.008-0.29-0.025-0.582-0.063-0.882l-2.156-28.821c-0.41-3.417-3.768-5.886-7.504-5.51c-3.732,0.377-6.426,3.452-6.016,6.873
		l5.148,28.52c0.033,0.292,0.084,0.577,0.137,0.856l8.23,51.552c-2.979,1.516,2.48,8.609,3.043,13.471
		c0.611,5.293-4.969,7.754,0.051,7.27C357.169,279.069,360.878,272.548,360.267,267.255z"/>
	<path fill="#28324E" d="M317.157,282.009l-23.805-22.488c-8.164,42.352-7.387,39.24-6.02,59.061
		c0.5,7.25,9.326,38.166,10.416,44.469c0.762,4.406,6.609,32.531,6.942,40.531c0,0,5.333,6,6.333,0s3.579-32.607,3.734-38.473
		c0.479-7.609-5.73-23.627-7.57-33.748C305.097,319.849,318.036,303.72,317.157,282.009z"/>
	<path fill="#28324E" d="M338.38,335.622c-4.014-21.951,19.31-51.656,7.201-78.374l-25.287,24.761
		c-0.881,21.711,0.947,30.592-0.162,42.24c-0.657,6.895,3.023,30.553,3.277,40.969c0.007,0,0.014,0,0.02,0
		c0.182,6.061,2.736,32.396,3.73,38.363c1,6,6.333,0,6.333,0c0.317-7.607,5.642-33.482,6.163-39.846
		c0.01-0.002,0.019-0.002,0.027-0.004c0.006-0.211,0.006-0.424,0.01-0.637c0.002-0.064,0.008-0.141,0.008-0.197h-0.004
		C339.807,356.778,339.384,341.11,338.38,335.622z"/>
	<path fill="#F0EFEF" d="M299.024,170.981l1.834,0.291l-1.5,14.308h23.977l7.51-14.6l2.347,0.292c0,0-3.548,16.37-2.296,21.308
		c1.227,4.833,2.463,10.622,7.796,12c0,0-1.333,46.408,16.667,75.038c18,28.631-67.814,24.629-68.074-2.037
		c-0.26-26.667,13.066-44.297,4.84-63.706c-4.969-11.722-2.729-15.658,0.938-27.325S299.024,170.981,299.024,170.981z"/>
	<path fill="#EA6A56" d="M302.835,397.831c2.856,5.75,1.979,11.25-1,15c-2.977,3.75-4.727,5-4.727,5s11.5-2.5,13.5-5.75
		s1.5-7.5,1.5-7.5l5.092,5.25l-4.092-14.27L302.835,397.831z"/>
	<path fill="#EA6A56" d="M335.575,410.431l-1.002-16.34l-4.963,3.113c-1.881,1.238-3.912-0.115-3.912-0.115s0.285,1.768,0.785,6.729
		c0.5,4.959-2.5,4.408,0.75,15.432c0,0,0.711-0.412,1.629-1.121l0.643-0.441l0.015-0.092c1.353-1.146,2.881-2.797,3.318-4.684
		c0.83-3.582,0.623-8.268,0.623-8.268L335.575,410.431z"/>
</g>
<path fill="#F1F1F2" d="M319.44,144.743c1.758,0.014,6.194-0.072,8.159-0.007c2.282,0.076,1.766,0,1.766,0s-2.563,1.389-5.339,1.514
	c-1.603,0.072-2.806-0.037-3.464-0.313C319.894,145.657,319.44,144.743,319.44,144.743z"/>
<g>
	<path fill="#ECD4C3" d="M226.224,180.192c3.295-0.007,5.97,2.091,5.976,4.687l0.069,34.094c0.005,2.595-2.662,4.704-5.959,4.711
		l0,0c-3.295,0.006-5.971-2.092-5.977-4.687l-0.067-34.094C220.26,182.308,222.928,180.198,226.224,180.192L226.224,180.192z"/>
	<path fill="#ECD4C3" d="M151.606,180.648c3.295-0.007,5.97,2.091,5.976,4.687l0.069,34.094c0.005,2.595-2.662,4.704-5.959,4.711
		l0,0c-3.295,0.006-5.971-2.092-5.977-4.687l-0.067-34.094C145.642,182.764,148.31,180.654,151.606,180.648L151.606,180.648z"/>
	<path fill="#D0D1D2" d="M173.814,302.357"/>
	<path fill="#D0D1D2" d="M174.183,302.357"/>
	<path fill="#D2B199" d="M159.26,158.385h10.146l4.334,0.042c1.882,0,3.496-1.314,4.192-3.191v-9.327h7.953h0.133h7.955v9.327
		c0.695,1.877,2.31,3.191,4.19,3.191l4.337-0.042h10.146c0,19.656-11.91,32.029-26.629,32.104v0.003c-0.021,0-0.045,0-0.066,0
		c-0.022,0-0.045,0-0.066,0v-0.003C171.167,190.414,159.26,178.041,159.26,158.385z"/>
	<path fill="#F4E0CD" d="M169.234,121.321c0.053,0,0.105,0.008,0.154,0.018c1.119-12.372-3.907-26.807,16.641-26.807
		c19.912,0,15.523,14.436,16.641,26.807c0.052-0.01,0.104-0.018,0.158-0.018c1.006,0,1.823,2.049,1.823,4.578
		c0,2.525-0.817,4.574-1.823,4.574c-0.201,0-0.396-0.081-0.576-0.233c-2.4,11.397-11.698,19.931-16.223,19.931
		c-4.719,0-13.87-8.531-16.229-19.922c-0.177,0.146-0.37,0.225-0.566,0.225c-1.008,0-1.826-2.049-1.826-4.574
		C167.408,123.37,168.226,121.321,169.234,121.321z"/>
	<g>
		<ellipse fill="#EFEDEE" cx="194.252" cy="122.26" rx="2.858" ry="2.824"/>
		<ellipse fill="#865A43" cx="194.175" cy="122.289" rx="1.854" ry="2.238"/>
		<ellipse fill="#EFEDEE" cx="194.176" cy="123.16" rx="0.724" ry="0.873"/>
	</g>
	<g>
		<ellipse fill="#EFEDEE" cx="181.195" cy="122.351" rx="2.859" ry="2.824"/>
		<ellipse fill="#865A43" cx="181.117" cy="122.379" rx="1.854" ry="2.237"/>
		<ellipse fill="#EFEDEE" cx="181.118" cy="123.25" rx="0.724" ry="0.873"/>
	</g>
	<path fill="#E7BC98" d="M190.046,133.441c0.84-0.8,0.736-2.296-0.189-3.478c0.098,0.087,0.191,0.177,0.283,0.274
		c1.16,1.218,1.362,2.907,0.449,3.775c-0.91,0.867-2.588,0.583-3.748-0.635c-0.092-0.097-0.175-0.197-0.256-0.3
		C187.72,134.061,189.208,134.239,190.046,133.441z"/>
	<path fill="#E8CDB9" d="M169.234,121.321c0.053,0,0.105,0.008,0.154,0.018c0.881-9.702-2.611-18.266,11.389-20.638
		c-4.369,5.549-7.087,13.333-7.087,21.953c0,12.063,5.321,22.494,13.051,27.449c-0.249,0.043-0.485,0.066-0.712,0.066
		c-4.719,0-13.87-8.531-16.229-19.922c-0.177,0.146-0.37,0.225-0.566,0.225c-1.008,0-1.826-2.049-1.826-4.574
		C167.408,123.37,168.226,121.321,169.234,121.321z"/>
	<g>
		<path fill="#4B433B" d="M176.857,93.07l-0.115-0.088C176.742,92.982,177.306,92.208,176.857,93.07z"/>
	</g>
	<path fill="#4B433B" d="M202.828,121.321l-1.812,1.644l0.905-16.349l-13.409-4.897l-3.382,4.478l-2.221-4.478l-11.99,5.937
		l-0.347,15.31h-3.991l-4-22.263c0,0,17.814-10.23,22.604-10.44c4.792-0.208,22.387,12.291,22.387,12.291l-4.429,18.84"/>
	<path fill="#4B433B" d="M169.596,130.239l1.546,11.67l12.654,10.468h2.153h0.087h3.982l9.875-11.069l2.357-11.069l-0.617,0.54
		l-2.662,8.206c0,0-0.335,0.426-0.87,1.301c-2.239-0.448-1.843-2.758-2.502-2.842c-0.479-0.061-4.108-1.583-7.456-1.778
		l-2.953,0.195c-0.002,0-0.002,0-0.002,0h-0.003l0,0c-3.474,0.195-6.057,1.522-6.536,1.583c-0.545,0.071-1.014,3.147-2.426,4.463
		c-1.861-1.604-3.191-2.921-3.191-2.921l-2.145-7.621L169.596,130.239z M185.892,147.535c-0.619-0.033-5.248-0.979-6.691-3.125
		c-0.149-1.689-0.274-4.159,0.279-4.362c2.087-0.768,3.96-1.084,5.709-1.138c1.622,0.054,7.496,0.37,9.583,1.138
		c0.773,0.286-0.266,4.205-0.362,5.003c-1.27,0.967-3.723,2.462-4.146,2.484c-1.225,0.063-1.854-0.283-2.103-0.541
		c-0.01-0.129-0.019-0.189-0.03-0.163c-0.01,0.021-0.024,0.046-0.042,0.074c-0.021-0.028-0.034-0.053-0.045-0.074
		c-0.011-0.027-0.021,0.034-0.027,0.159C187.767,147.25,187.13,147.598,185.892,147.535z"/>
	<path fill="#52AAD1" d="M218.537,236.98l-4.818,172.979h-16.721l-2.148-131.48c0-2.213-1.558-4.014-3.48-4.014h-5.106
		c-1.925,0-3.487,1.801-3.487,4.014l-2.145,131.48h-16.72l-4.821-172.979H218.537z"/>
	<g>
		<path fill="#3C8EBA" d="M184.114,274.123c0-2.314,5.578-4.191,7.501-4.191h5.108c1.925,0,3.483,1.877,3.483,4.191l2.139,135.836
			h-5.348l-2.148-130.676c0-2.219-1.558-4.016-3.48-4.016h-7.271L184.114,274.123z"/>
		<polygon fill="#3C8EBA" points="164.634,236.98 169.25,409.959 163.911,409.959 159.089,236.98 		"/>
	</g>
	<rect x="159.441" y="238.59" fill="#3C8EBA" width="58.936" height="0.938"/>
	<path fill="#3C8EBA" d="M176.433,246.728c-1.699-1.796,1.631,0.813-3.762,5.915c-4.936,4.664-7.809,1.627-6.111,3.424
		c1.698,1.793,5.286,1.16,8.01-1.418C177.296,252.068,178.13,248.526,176.433,246.728z"/>
	<path fill="#3C8EBA" d="M203.085,246.728c1.699-1.796-1.628,0.813,3.76,5.915c4.939,4.664,7.811,1.627,6.111,3.424
		c-1.696,1.793-5.286,1.16-8.01-1.418C202.222,252.068,201.388,248.526,203.085,246.728z"/>
	<g>
		<path fill="#40A85E" d="M161.511,157.99h14.668c0,7.009,5.682,12.693,12.693,12.693c7.009,0,12.693-5.684,12.693-12.693h14.668
			c0.928,0,1.678,0.863,1.678,1.922l3.01,93.604c0,1.063-0.751,1.926-1.68,1.926H158.5c-0.928,0-1.676-0.863-1.676-1.926
			l3.01-93.604C159.833,158.853,160.583,157.99,161.511,157.99z"/>
		<path fill="#40A85E" d="M160.458,157.99c-9.756,0.384-10.236,9.31-16.392,23.158c-6.154,13.845,12.757,33.227,14.329,11.457
			C158.423,192.219,160.458,157.99,160.458,157.99z"/>
		<path fill="#40A85E" d="M217.448,157.99c9.756,0.384,10.236,9.31,16.392,23.158c6.154,13.845-12.757,33.227-14.329,11.457
			C219.483,192.219,217.448,157.99,217.448,157.99z"/>
		<path fill="#63BD6F" d="M188.873,170.683c7.009,0,12.693-5.684,12.693-12.693h3.244c0.045,0.498,0.074,1.006,0.074,1.517
			c0,8.842-7.168,16.011-16.012,16.011c-8.842,0-16.011-7.169-16.011-16.011c0-0.51,0.028-1.019,0.073-1.517h3.244
			C176.179,164.999,181.861,170.683,188.873,170.683z"/>
	</g>
	<path fill="#F0EFEF" d="M162.833,407.619c0,5.826,0,6.146,11.691,5.992c11.684-0.166,11.684-0.166,11.684-5.992
		c0-5.84-5.231-10.564-11.684-10.564C168.066,397.055,162.833,401.779,162.833,407.619z"/>
	<path fill="#F0EFEF" d="M196.21,407.262c0,5.836,0,6.154,11.689,5.99c11.684-0.154,11.684-0.154,11.684-5.99
		c0-5.83-5.229-10.561-11.684-10.561S196.21,401.432,196.21,407.262z"/>
	<g>
		<path fill="#ECD4C3" d="M246.65,204.711c-0.018-0.001-0.043-0.002-0.07-0.003l0.002,0.007
			C246.603,204.716,246.628,204.711,246.65,204.711z"/>
	</g>
	<path fill="#ECD4C3" d="M185.655,162.514c-3.936,2.11-5.598,5.379-6.918,8.608c-0.901,2.204,0.277,3.891,0.794,13.905l0,0l0,0
		l-30.596,30.618c-1.731,2.865-1.246,6.329,1.082,7.735c2.328,1.408,5.621,0.228,7.354-2.638c0,0,28.651-32.368,30.527-35.121
		s0.423-18.868,0.661-21.352C188.798,161.774,188.873,160.789,185.655,162.514z"/>
	<path fill="#ECD4C3" d="M191.424,162.514c3.936,2.11,5.598,5.379,6.918,8.608c0.901,2.204-0.277,3.891-0.794,13.905l0,0l0,0
		l30.596,30.618c1.731,2.865,1.246,6.329-1.082,7.735c-2.328,1.408-5.621,0.228-7.354-2.638c0,0-28.651-32.368-30.527-35.121
		s-0.423-18.868-0.661-21.352C188.281,161.774,188.207,160.789,191.424,162.514z"/>
	<path fill="#F1F1F2" d="M192.986,140.329c0,2.739-2.639,4.96-5.896,4.96c-3.256,0-5.895-2.221-5.895-4.96"/>
</g>
</svg>
