<?xml version="1.0" encoding="utf-8"?>
<!-- Generator: Adobe Illustrator 16.2.0, SVG Export Plug-In . SVG Version: 6.00 Build 0)  -->
<!DOCTYPE svg PUBLIC "-//W3C//DTD SVG 1.1//EN" "http://www.w3.org/Graphics/SVG/1.1/DTD/svg11.dtd">
<svg version="1.1" id="Layer_1" xmlns="http://www.w3.org/2000/svg" xmlns:xlink="http://www.w3.org/1999/xlink" x="0px" y="0px"
	 width="500px" height="500px" viewBox="0 0 500 500" enable-background="new 0 0 500 500" xml:space="preserve">
<circle fill="#E6E7E8" cx="248.252" cy="245.695" r="230.895"/>
<path fill="#BBBDBF" d="M373.354,425.617c0,11.83-56.013,21.422-125.105,21.422c-69.088,0-125.099-9.592-125.099-21.422
	c0-11.829,56.011-21.421,125.099-21.421C317.342,404.196,373.354,413.788,373.354,425.617z"/>
<g id="Layer_2">
</g>
<g id="Layer_3">
</g>
<g>
	<path fill="#FFFFFF" d="M249.72,17.62c-128.07,0-231.89,103.82-231.89,231.9c0,128.07,103.82,231.89,231.89,231.89
		c128.08,0,231.9-103.82,231.9-231.89C481.62,121.44,377.8,17.62,249.72,17.62z M249.72,471.41
		c-122.35,0-221.89-99.54-221.89-221.89c0-122.36,99.54-221.9,221.89-221.9c122.36,0,221.9,99.54,221.9,221.9
		C471.62,371.87,372.08,471.41,249.72,471.41z"/>
	<path fill="none" d="M471.62,249.52c0,122.35-99.54,221.89-221.9,221.89c-122.35,0-221.89-99.54-221.89-221.89
		c0-122.36,99.54-221.9,221.89-221.9C372.08,27.62,471.62,127.16,471.62,249.52z"/>
	<path fill="#7F8C8D" d="M420.77,78.47C375.08,32.78,314.34,7.62,249.72,7.62c-64.61,0-125.35,25.16-171.04,70.85
		C32.99,124.16,7.83,184.9,7.83,249.52c0,64.61,25.16,125.36,70.85,171.04c45.69,45.69,106.43,70.851,171.04,70.851
		c64.62,0,125.36-25.16,171.049-70.851c45.69-45.68,70.851-106.43,70.851-171.04C491.62,184.9,466.46,124.16,420.77,78.47z
		 M249.72,471.41c-122.35,0-221.89-99.54-221.89-221.89c0-122.36,99.54-221.9,221.89-221.9c122.36,0,221.9,99.54,221.9,221.9
		C471.62,371.87,372.08,471.41,249.72,471.41z"/>
</g>
<g>
	<g>
		<path fill="#D2B199" d="M138.904,195.966l6.404-0.131l5.819-0.07c2.524-0.051,3.076-2.241,3.989-4.392l-0.331-14.235l12.522,4.073
			l0.18-0.003l13.928-3.468l-0.395,14.272c0.95,2.112,0.37,3.133,2.896,3.082l5.818-0.168l5.09-0.104
			c0.194,22.327-7.142,36.534-26.897,37.023v0.004c-0.031,0.001-0.061,0.001-0.091,0.002c-0.03,0-0.057,0.001-0.089,0.001v-0.003
			C147.987,232.167,139.097,218.293,138.904,195.966z"/>
		<path fill="#F4E0CD" d="M144.235,155.541c0.077-0.001,0.153,0.006,0.225,0.018c1.486-15.213-5.937-32.776,23.792-33.385
			c28.803-0.59,22.609,17.251,24.357,32.398c0.076-0.015,0.148-0.025,0.226-0.027c1.457-0.03,2.664,2.46,2.689,5.563
			c0.027,3.098-1.135,5.636-2.591,5.666c-0.289,0.005-0.572-0.088-0.835-0.27c-3.347,14.055-16.711,24.802-23.254,24.936
			c-6.829,0.14-20.16-10.056-23.692-23.964c-0.257,0.186-0.532,0.288-0.819,0.294c-1.458,0.03-2.663-2.46-2.689-5.558
			C141.617,158.109,142.777,155.571,144.235,155.541z"/>
		<g>
			<path fill="#EFEDEE" d="M174.984,153.601c0.015,1.771,1.744,3.172,3.863,3.129c2.119-0.044,3.824-1.515,3.809-3.287
				c-0.016-1.772-1.746-3.172-3.865-3.128C176.673,150.357,174.969,151.828,174.984,153.601z"/>
			<path fill="#865A43" d="M176.229,153.606c0.012,1.404,1.132,2.52,2.508,2.491c1.376-0.028,2.48-1.189,2.468-2.593
				s-1.137-2.518-2.512-2.49C177.317,151.042,176.217,152.202,176.229,153.606z"/>
			<path fill="#EFEDEE" d="M177.753,154.566c0.004,0.549,0.443,0.983,0.98,0.972c0.534-0.011,0.967-0.463,0.963-1.012
				c-0.006-0.547-0.447-0.981-0.982-0.97C178.179,153.567,177.748,154.018,177.753,154.566z"/>
		</g>
		<g>
			<path fill="#EFEDEE" d="M157.454,154.062c0.016,1.772,1.745,3.172,3.866,3.129c2.117-0.043,3.824-1.514,3.809-3.286
				c-0.016-1.772-1.748-3.172-3.864-3.128C159.144,150.82,157.438,152.29,157.454,154.062z"/>
			<path fill="#865A43" d="M158.695,154.069c0.013,1.402,1.14,2.517,2.516,2.489c1.369-0.028,2.475-1.188,2.462-2.591
				c-0.012-1.407-1.137-2.521-2.507-2.492C159.791,151.502,158.684,152.663,158.695,154.069z"/>
			<path fill="#EFEDEE" d="M160.226,155.027c0.005,0.55,0.444,0.983,0.98,0.972c0.535-0.011,0.966-0.462,0.961-1.011
				c-0.005-0.547-0.444-0.981-0.979-0.97C160.653,154.029,160.221,154.48,160.226,155.027z"/>
		</g>
		<path fill="#E7BC98" d="M173.281,166.337c1.12-0.931,0.966-2.628-0.286-3.945c0.131,0.096,0.257,0.195,0.382,0.303
			c1.568,1.352,1.858,3.265,0.641,4.276c-1.215,1.009-3.469,0.734-5.04-0.619c-0.125-0.108-0.233-0.219-0.347-0.333
			C170.165,167.105,172.166,167.267,173.281,166.337z"/>
		<path fill="#E8CDB9" d="M144.235,155.541c0.077-0.001,0.153,0.006,0.225,0.018c1.169-11.93-2.789-27.883,17.441-31.208
			c-6.261,6.938-11.296,22.117-11.204,32.695c0.128,14.801,7.941,27.441,19.177,33.292c-0.359,0.061-0.704,0.096-1.029,0.103
			c-6.829,0.14-20.16-10.056-23.692-23.964c-0.257,0.186-0.532,0.288-0.819,0.294c-1.458,0.03-2.663-2.46-2.689-5.558
			C141.617,158.109,142.777,155.571,144.235,155.541z"/>
		<g>
			<path fill="#4B433B" d="M155.18,120.845l-0.158-0.097C155.021,120.748,155.776,119.854,155.18,120.845z"/>
		</g>
		<path fill="#4B433B" d="M192.344,152.747l-2.178,0.542l1.063-18.595l-16.816-10.6l-4.08,11.028l-4.086-10.862l-19.287,9.182
			l-0.488,22.226l-2.764,0.094l-5.604-27.243c0,0,23.801-13.06,30.23-13.449c6.433-0.386,30.184,14.486,30.184,14.486l-5.743,23.269
			"/>
		<path fill="#C7927A" d="M171.026,174.905l-1.233-0.232c0,0-4.946,0.415-6.329,1.355c0,0,2.458,2.663,5.24,2.868
			c0.838,0.06,1.536,0.077,2.212,0.065v0.003c0.047-0.001,0.093-0.005,0.145-0.006c0.051-0.001,0.097,0.001,0.146,0v-0.002
			c0.676-0.017,1.371-0.063,2.207-0.156c0.375-0.042,0.741-0.135,1.096-0.254c0.905-0.619,1.455-1.367,1.447-2.174
			c-0.003-0.538-0.262-1.039-0.696-1.487c-1.554-0.197-3.009-0.262-3.009-0.262L171.026,174.905z"/>
		<path fill="#F1F1F2" d="M164,176.065l4.736,0.256l4.755-0.097l1.763-0.514l0.167,0.652c0,0-2.081,1.885-5.89,1.364
			C165.72,177.204,164,176.065,164,176.065z"/>
	</g>
	<path fill="#ECD4C3" d="M114.702,296.015c-1.729-9.083-5.832-40.461-6.52-45.732c-0.049-0.251-0.083-0.503-0.097-0.763l1.062-6.08
		c-0.139-2.969,0.392-5.414,5.645-5.508c5.249-0.092,9.617,2.244,9.759,5.215l-1.652,6.114c0.012,0.255,0.008,0.503-0.014,0.75
		l-0.75,45.024c4.442,0.966-1.659,7.644-1.436,11.862c0.25,4.603,8.492,6.085,1.43,6.225c-7.051,0.14-13.539-5.029-13.787-9.629
		C108.17,300.318,110.752,297.496,114.702,296.015z"/>
	<path fill="#ECD4C3" d="M220.767,294.383c1.467-9.118,4.465-40.568,4.966-45.853c0.042-0.254,0.069-0.505,0.07-0.766l-1.46-6.052
		c0.008-2.972-0.69-5.404-6.472-5.381c-5.78,0.023-10.473,2.454-10.484,5.426l2.111,6.075c0.001,0.254,0.017,0.502,0.053,0.749
		l2.996,44.986c-4.839,1.061,2.195,7.603,2.15,11.823c-0.054,4.602-9.048,6.271-1.274,6.254c7.763-0.018,14.653-5.325,14.702-9.931
		C228.158,298.538,225.182,295.775,220.767,294.383z"/>
	<path fill="#D0D1D2" d="M154.356,305.744"/>
	<path fill="#D0D1D2" d="M154.651,305.739"/>
	<path fill="#58595B" d="M156.003,265.187c-1.38-1.287,1.317,0.572-2.972,4.356c-3.926,3.462-6.259,1.284-4.882,2.571
		c1.379,1.286,4.255,0.779,6.422-1.134C156.741,269.065,157.381,266.476,156.003,265.187z"/>
	<path fill="#58595B" d="M177.406,264.848c1.348-1.329-1.301,0.613,3.066,4.261c4.004,3.337,6.287,1.086,4.936,2.417
		c-1.347,1.328-4.235,0.913-6.444-0.932S176.056,266.18,177.406,264.848z"/>
	<g>
		<path fill="#6D6E70" d="M204.693,300.619l-4.698,126.105l-21.207,0.335l-3.803-95.733c-0.017-1.611-2.007-2.892-4.448-2.853
			l-6.476,0.103c-2.442,0.038-4.408,1.381-4.39,2.993l-1.641,95.819l-21.209,0.336l-7.531-125.911L204.693,300.619z"/>
		<g>
			<path fill="#58595B" d="M161.335,328.369c-0.019-1.687,7.04-3.164,9.477-3.202l6.479-0.104c2.44-0.038,4.434,1.296,4.453,2.982
				l3.825,98.907l-6.782,0.106l-3.796-95.147c-0.019-1.616-2.007-2.893-4.448-2.854l-9.221,0.146L161.335,328.369z"/>
			<polygon fill="#58595B" points="136.323,301.703 143.595,427.617 136.822,427.725 129.291,301.813 			"/>
		</g>
		<path fill="#231F20" d="M134.185,425.514c0.048,4.245,0.05,4.478,12.144,4.173c12.088-0.312,12.088-0.312,12.041-4.556
			c-0.048-4.253-5.498-7.608-12.175-7.503C139.514,417.734,134.137,421.261,134.185,425.514z"/>
		<path fill="#231F20" d="M176.16,424.848c0.047,4.251,0.051,4.482,12.052,4.173c11.996-0.301,11.996-0.301,11.948-4.554
			c-0.048-4.246-5.456-7.607-12.084-7.502C181.448,417.069,176.113,420.602,176.16,424.848z"/>
	</g>
	<g>
		<path fill="#ECD4C3" d="M212.045,233.688c-0.016,0-0.036-0.001-0.058-0.002l0.003,0.005
			C212.007,233.692,212.028,233.688,212.045,233.688z"/>
	</g>
	<path fill="#37B34A" d="M150.306,195.543c5.406,0.229,8.775,13.724,17.458,13.586c8.683-0.138,14.209-9.822,15.199-14.09
		c0.99-4.27,45.514-0.511,46.472,47.263c0.256,12.751-12.624,6.782-12.624,6.782l-14.656-2.86l-0.14-12.38
		c0,0,17.577,72.763-5.411,75.92c-22.985,3.159-42.486,4.412-59.895-1.398c-17.412-5.809-12.367-73.452-1.167-76.098
		c0,0-4.44,18.174-13.028,20.778s-27.681-1.222-21.913-12.621C106.369,229.028,102.974,193.538,150.306,195.543z"/>
	<path fill="#278933" d="M209.37,201.104c-2.46,8.597-5.763,17.343-9.94,26.065c-16.881,35.247-43.837,61.441-70.436,71.752
		c1.807,4.856,4.336,8.32,7.715,9.445c17.409,5.811,36.91,4.558,59.895,1.398c16.844-2.313,11.908-42.002,8.067-63.049l12.14,2.369
		c0,0,12.88,5.969,12.624-6.782C229,220.634,219.603,208.021,209.37,201.104z"/>
</g>
<g>
	<path fill="#ECD4C3" d="M248.563,238.7c8.997-0.443,5.57-3.536,11.141-4.42c5.212-0.827,8.175-0.491,11.464,5.128
		c12.115,6.879,19.979,9.614,24.888,1.668c5.154-8.347-3.801-43.209,0.666-50.663c4.469-7.453,6.55-4.33,10.675,0
		c4.123,4.332,2.063,6.472,0,11.776c0,0,2.827,55.473-9.201,55.768c-12.03,0.295-27.229-9.717-27.229-9.717l-0.011-0.062
		c-10.749-5.648-19.857-0.216-29.25-4.425C232.28,239.528,239.565,239.142,248.563,238.7z"/>
	<path fill="#ECD4C3" d="M377.81,283.046c1.077-12.27,3.483-54.621,3.886-61.736c0.03-0.34,0.05-0.679,0.058-1.03l-0.841-8.177
		c0.053-4.006-0.357-7.293-4.053-7.343c-3.697-0.047-6.736,3.164-6.789,7.17l1.256,8.217c-0.004,0.342,0.003,0.679,0.023,1.011
		l1.215,60.675c-3.108,1.363,1.286,10.275,1.193,15.965c-0.105,6.207-5.881,8.326-0.912,8.414c4.964,0.084,9.45-6.979,9.554-13.182
		C382.47,288.749,380.609,284.983,377.81,283.046z"/>
	<path fill="#D0D1D2" d="M353.941,322.161"/>
	<path fill="#D0D1D2" d="M353.58,322.161"/>
	<path fill="#D2B199" d="M365.426,181.11h-9.964l-4.257,0.042c-1.848,0-3.432-1.291-4.116-3.134v-9.16h-7.811h-0.131h-7.813v9.16
		c-0.68,1.843-2.266,3.134-4.113,3.134l-4.26-0.042h-9.963c0,19.303,11.695,31.453,26.149,31.527v0.003c0.021,0,0.044,0,0.066,0
		c0.021,0,0.043,0,0.064,0v-0.003C353.734,212.563,365.426,200.413,365.426,181.11z"/>
	<path fill="#F4E0CD" d="M355.631,144.713c-0.051,0-0.103,0.008-0.151,0.018c-1.099-12.149,3.837-26.325-16.341-26.325
		c-19.555,0-15.245,14.176-16.341,26.325c-0.052-0.01-0.104-0.018-0.156-0.018c-0.988,0-1.791,2.012-1.791,4.496
		c0,2.479,0.803,4.491,1.791,4.491c0.198,0,0.39-0.08,0.565-0.229c2.356,11.191,11.488,19.572,15.932,19.572
		c4.635,0,13.62-8.378,15.936-19.564c0.174,0.143,0.364,0.221,0.557,0.221c0.99,0,1.793-2.012,1.793-4.491
		C357.424,146.725,356.621,144.713,355.631,144.713z"/>
	<g>
		<ellipse fill="#EFEDEE" cx="331.062" cy="145.636" rx="2.806" ry="2.772"/>
		<ellipse fill="#865A43" cx="331.138" cy="145.664" rx="1.82" ry="2.197"/>
		<ellipse fill="#EFEDEE" cx="331.138" cy="146.519" rx="0.71" ry="0.858"/>
	</g>
	<g>
		<ellipse fill="#EFEDEE" cx="343.886" cy="145.724" rx="2.808" ry="2.772"/>
		<ellipse fill="#865A43" cx="343.961" cy="145.752" rx="1.821" ry="2.197"/>
		<ellipse fill="#EFEDEE" cx="343.961" cy="146.608" rx="0.711" ry="0.856"/>
	</g>
	<path fill="#E7BC98" d="M335.193,156.615c-0.826-0.785-0.724-2.255,0.186-3.415c-0.096,0.085-0.188,0.173-0.279,0.269
		c-1.138,1.196-1.336,2.854-0.44,3.708c0.894,0.851,2.542,0.573,3.681-0.625c0.09-0.095,0.173-0.192,0.253-0.293
		C337.478,157.224,336.016,157.399,335.193,156.615z"/>
	<path fill="#E8CDB9" d="M355.631,144.713c-0.051,0-0.103,0.008-0.151,0.018c-0.864-9.528,2.563-17.937-11.185-20.266
		c4.291,5.449,6.961,13.092,6.961,21.558c0,11.846-5.228,22.089-12.817,26.955c0.243,0.042,0.477,0.065,0.7,0.065
		c4.635,0,13.62-8.378,15.936-19.564c0.174,0.143,0.364,0.221,0.557,0.221c0.99,0,1.793-2.012,1.793-4.491
		C357.424,146.725,356.621,144.713,355.631,144.713z"/>
	<g>
		<path fill="#4B433B" d="M348.145,116.97l0.114-0.086C348.259,116.883,347.703,116.124,348.145,116.97z"/>
	</g>
	<path fill="#4B433B" d="M322.642,144.713l1.779,1.614l-0.891-16.055l13.169-4.81l3.321,4.398l2.181-4.398l11.774,5.831
		l0.342,15.034h3.918l3.928-21.862c0,0-17.495-10.047-22.197-10.253c-4.706-0.204-21.983,12.07-21.983,12.07l4.348,18.501"/>
	<path fill="#4B433B" d="M354.008,154.576l-2.107,7.483c0,0-1.304,1.294-3.134,2.87c-1.388-1.292-1.847-4.314-2.383-4.382
		c-0.47-0.061-3.007-1.364-6.418-1.555l0,0h-0.004c0,0,0,0-0.001,0l-2.899-0.192c-3.288,0.192-6.852,1.687-7.322,1.747
		c-0.647,0.082-0.258,2.351-2.456,2.791c-0.526-0.859-0.855-1.278-0.855-1.278l-2.615-8.058l-0.605-0.531l2.315,10.87l9.696,10.87
		h3.911h0.086h2.114l12.428-10.279l1.518-11.46L354.008,154.576z M337.187,169.921c-0.007-0.123-0.017-0.183-0.026-0.156
		c-0.012,0.021-0.023,0.045-0.044,0.072c-0.018-0.027-0.031-0.052-0.04-0.072c-0.014-0.026-0.022,0.033-0.031,0.16
		c-0.245,0.253-0.863,0.593-2.066,0.531c-0.414-0.021-2.823-1.49-4.07-2.439c-0.094-0.784-1.115-4.632-0.355-4.913
		c2.049-0.755,7.818-1.065,9.409-1.118c1.719,0.053,3.558,0.363,5.607,1.118c0.544,0.199,0.421,2.624,0.274,4.283
		c-1.418,2.108-5.962,3.037-6.571,3.069C338.057,170.518,337.432,170.175,337.187,169.921z"/>
	<path fill="#52AAD1" d="M310.023,257.958l4.732,169.871h16.42l2.109-129.119c0-2.172,1.531-3.941,3.419-3.941h5.015
		c1.89,0,3.424,1.77,3.424,3.941l2.105,129.119h16.419l4.733-169.871H310.023z"/>
	<g>
		<path fill="#3C8EBA" d="M343.827,294.433c0-2.271-5.477-4.115-7.365-4.115h-5.017c-1.891,0-3.421,1.844-3.421,4.115
			l-2.101,133.396h5.252l2.109-128.328c0-2.18,1.531-3.945,3.419-3.945h7.141L343.827,294.433z"/>
		<polygon fill="#3C8EBA" points="362.957,257.958 358.423,427.829 363.667,427.829 368.4,257.958 		"/>
	</g>
	<rect x="310.181" y="259.538" fill="#3C8EBA" width="57.875" height="0.922"/>
	<path fill="#3C8EBA" d="M351.37,267.528c1.669-1.762-1.604,0.799,3.694,5.809c4.846,4.582,7.667,1.598,6.001,3.361
		c-1.667,1.764-5.19,1.141-7.866-1.391C350.521,272.772,349.702,269.296,351.37,267.528z"/>
	<path fill="#3C8EBA" d="M325.196,267.528c-1.667-1.762,1.6,0.799-3.69,5.809c-4.852,4.582-7.671,1.598-6.004,3.361
		s5.193,1.141,7.867-1.391C326.045,272.772,326.864,269.296,325.196,267.528z"/>
	<g>
		<path fill="#F9C61D" d="M366.022,180.388h-14.403c0,6.883-5.579,12.464-12.465,12.464c-6.883,0-12.467-5.582-12.467-12.464
			h-14.403c-0.912,0-1.646,0.847-1.646,1.888l-2.956,91.918c0,1.043,0.738,1.891,1.649,1.891h59.65c0.912,0,1.645-0.848,1.645-1.891
			l-2.955-91.918C367.671,181.235,366.934,180.388,366.022,180.388z"/>
		<path fill="#F9C61D" d="M312.284,180.388c-6.891-0.333-8.571,0.428-10.615,1.774c-6.692,4.408-10.635,34.004-6.745,35.354
			c10.896,3.783,15.814-1.058,15.814-0.805C310.738,217.086,312.284,180.388,312.284,180.388z"/>
		<path fill="#F9C61D" d="M365.506,180.388c6.892-0.333,8.572,0.428,10.615,1.774c6.691,4.408,12.018,33.691,7.522,37.038
			c-9.253,6.885-16.593-2.742-16.593-2.489C367.051,217.086,365.506,180.388,365.506,180.388z"/>
		<path fill="#F7DA64" d="M339.154,192.853c-6.883,0-12.467-5.582-12.467-12.464h-3.183c-0.046,0.489-0.074,0.988-0.074,1.489
			c0,8.683,7.039,15.723,15.724,15.723c8.684,0,15.723-7.041,15.723-15.723c0-0.501-0.027-1-0.071-1.489h-3.187
			C351.619,187.271,346.04,192.853,339.154,192.853z"/>
	</g>
	<path fill="#F0EFEF" d="M364.726,425.53c0,5.723,0,6.037-11.481,5.883c-11.473-0.16-11.473-0.16-11.473-5.883
		c0-5.734,5.137-10.373,11.473-10.373C359.586,415.157,364.726,419.796,364.726,425.53z"/>
	<path fill="#F0EFEF" d="M331.947,425.179c0,5.732,0,6.045-11.478,5.883c-11.475-0.15-11.475-0.15-11.475-5.883
		c0-5.725,5.136-10.371,11.475-10.371S331.947,419.454,331.947,425.179z"/>
	<path fill="#C7927A" d="M336.9,163.981l0.896-0.222c0,0,3.621,0.27,4.64,1.06c0,0-1.782,2.344-3.817,2.571
		c-0.609,0.067-1.12,0.094-1.615,0.096v0.002c-0.035,0-0.069-0.002-0.104-0.002c-0.039,0-0.073,0.002-0.109,0.002v-0.002
		c-0.494-0.002-1.003-0.029-1.615-0.096c-0.273-0.031-0.541-0.104-0.805-0.202c-0.663-0.518-1.07-1.155-1.07-1.853
		c0-0.465,0.188-0.901,0.5-1.297c1.136-0.199,2.198-0.279,2.198-0.279L336.9,163.981z"/>
	<g>
		<path fill="#ECD4C3" d="M282.415,226.269c0.018-0.001,0.043-0.002,0.07-0.004l-0.002,0.007
			C282.463,226.273,282.437,226.269,282.415,226.269z"/>
	</g>
</g>
</svg>
