<?xml version="1.0" encoding="utf-8"?>
<!-- Generator: Adobe Illustrator 16.2.0, SVG Export Plug-In . SVG Version: 6.00 Build 0)  -->
<!DOCTYPE svg PUBLIC "-//W3C//DTD SVG 1.1//EN" "http://www.w3.org/Graphics/SVG/1.1/DTD/svg11.dtd">
<svg version="1.1" id="Layer_1" xmlns="http://www.w3.org/2000/svg" xmlns:xlink="http://www.w3.org/1999/xlink" x="0px" y="0px"
	 width="500px" height="500px" viewBox="0 0 500 500" enable-background="new 0 0 500 500" xml:space="preserve">
<circle fill="#35495E" cx="250" cy="250" r="232.154"/>
<g id="Layer_2">
</g>
<g id="Layer_3">
</g>
<path fill="#D0D2D3" d="M248.208,256.881"/>
<path fill="#D0D2D3" d="M247.864,256.882"/>
<ellipse fill="#F1F1F2" cx="425.651" cy="384.594" rx="0.771" ry="1"/>
<polygon fill="#D2B199" points="334.767,325.27 358.598,321.163 358.598,448 339.101,452.605 "/>
<g>
	<path fill="#D2B199" d="M325.436,236.818h-28.764l-12.287,0.106c-5.33,0-9.904-3.23-11.883-7.843v-22.933H249.96h-0.378h-22.553
		v22.933c-1.964,4.613-6.543,7.843-11.876,7.843l-12.289-0.106h-28.762c0,48.329,33.759,78.746,75.479,78.931v0.01
		c0.063,0,0.13,0,0.192,0c0.061,0,0.12,0,0.186,0v-0.01C291.684,315.563,325.436,285.146,325.436,236.818z"/>
	<path fill="#F4E0CD" d="M299.632,150.782c-0.151,0-0.311,0.02-0.457,0.046c-3.318-30.417,11.601-65.907-49.4-65.907
		c-59.116,0-46.087,35.49-49.404,65.907c-0.156-0.026-0.304-0.046-0.467-0.046c-2.99,0-5.417,5.036-5.417,11.255
		c0,6.208,2.427,11.245,5.417,11.245c0.597,0,1.174-0.197,1.709-0.573c7.121,28.017,34.729,48.998,48.162,48.998
		c14.011,0,41.176-20.973,48.177-48.981c0.527,0.361,1.098,0.556,1.681,0.556c2.995,0,5.422-5.036,5.422-11.245
		C305.053,155.818,302.627,150.782,299.632,150.782z"/>
	<g>
		<path fill="#EFEDEE" d="M239.285,158.741c0,3.835-3.801,6.943-8.481,6.943c-4.689,0-8.488-3.108-8.488-6.943
			c0-3.837,3.799-6.943,8.488-6.943C235.484,151.798,239.285,154.904,239.285,158.741z"/>
		<path fill="#865A43" d="M236.531,158.811c0,3.038-2.458,5.501-5.498,5.501c-3.043,0-5.506-2.463-5.506-5.501
			c0-3.043,2.463-5.503,5.506-5.503C234.073,153.307,236.531,155.768,236.531,158.811z"/>
		<path fill="#EFEDEE" d="M233.176,160.953c0,1.187-0.961,2.145-2.143,2.145c-1.188,0-2.155-0.958-2.155-2.145
			s0.968-2.143,2.155-2.143C232.215,158.811,233.176,159.766,233.176,160.953z"/>
	</g>
	<g>
		<path fill="#EFEDEE" d="M278.725,158.965c0,3.835-3.801,6.941-8.488,6.941c-4.683,0-8.488-3.106-8.488-6.941
			c0-3.837,3.806-6.943,8.488-6.943C274.925,152.022,278.725,155.128,278.725,158.965z"/>
		<path fill="#865A43" d="M275.971,159.034c0,3.039-2.463,5.499-5.506,5.499c-3.03,0-5.501-2.46-5.501-5.499
			c0-3.042,2.471-5.505,5.501-5.505C273.509,153.529,275.971,155.992,275.971,159.034z"/>
		<path fill="#EFEDEE" d="M272.613,161.177c0,1.189-0.965,2.147-2.147,2.147c-1.185,0-2.147-0.958-2.147-2.147
			c0-1.187,0.963-2.143,2.147-2.143C271.648,159.034,272.613,159.99,272.613,161.177z"/>
	</g>
	<path fill="#E7BC98" d="M252.273,183.306c-3.44,0-6.281-2.841-6.712-6.514c-0.033,0.327-0.048,0.64-0.048,0.973
		c0,4.133,3.023,7.484,6.76,7.484c3.733,0,6.76-3.351,6.76-7.484c0-0.333-0.021-0.646-0.063-0.973
		C258.542,180.465,255.711,183.306,252.273,183.306z"/>
	<path fill="#E8CDB9" d="M299.632,150.782c-0.151,0-0.311,0.02-0.457,0.046c-2.612-23.853,7.754-44.908-33.813-50.738
		c12.976,13.643,21.043,32.776,21.043,53.971c0,29.657-15.8,55.3-38.749,67.482c0.741,0.108,1.444,0.164,2.118,0.164
		c14.011,0,41.176-20.973,48.177-48.981c0.527,0.361,1.098,0.556,1.681,0.556c2.995,0,5.422-5.036,5.422-11.245
		C305.053,155.818,302.627,150.782,299.632,150.782z"/>
	<path fill="#C7927A" d="M254.96,195.853l-2.687,0.554l-2.691-0.554c0,0-10.831,0.677-13.891,2.653c0,0,5.34,5.869,11.425,6.435
		c1.83,0.169,3.354,0.238,4.835,0.243v0.005c0.101,0,0.207-0.005,0.322-0.005c0.105,0,0.209,0.005,0.315,0.005v-0.005
		c1.48-0.005,3.007-0.074,4.834-0.243c6.088-0.565,11.421-6.435,11.421-6.435C265.793,196.53,254.96,195.853,254.96,195.853z"/>
	<g>
		<path fill="#4B433B" d="M277.002,81.329l0.342-0.219C277.344,81.11,275.669,79.205,277.002,81.329z"/>
	</g>
	<path fill="#4B433B" d="M199.903,150.782l5.375,4.042l-2.688-40.194l39.813-12.04l10.039,11.007l6.591-11.007l35.596,14.594
		l1.033,37.64l3.513-3.996l11.601-46.191c0,0-44.279-29.7-58.502-30.215c-14.226-0.51-66.461,30.215-66.461,30.215l13.146,46.318"/>
	<path fill="#4B433B" d="M294.725,175.472l-6.365,18.739c0,0-3.95,3.238-9.479,7.179c-4.195-3.23-5.585-10.795-7.202-10.971
		c-1.421-0.151-9.088-3.411-19.406-3.893l0,0h-0.01c0,0,0,0-0.005,0l0,0c-9.938,0.481-17.598,3.741-19.025,3.893
		c-1.957,0.205-3.577,11.221-10.225,12.321c-6.346-4.519-11.659-8.529-11.659-8.529l-5.924-18.739l-3.813-2.764l4.56,28.689
		l37.242,25.735h6.334h0.258h6.392l37.567-25.735l4.593-28.689L294.725,175.472z M252.779,213.892
		c-0.02-0.311-0.046-0.459-0.082-0.392c-0.034,0.053-0.067,0.11-0.135,0.183c-0.048-0.072-0.092-0.13-0.12-0.183
		c-0.039-0.067-0.063,0.082-0.092,0.399c-0.742,0.636-2.607,1.483-6.245,1.329c-1.254-0.053-7.005-1.719-10.771-4.095
		c-0.296-1.964-1.94-13.606,0.356-14.312c6.201-1.887,11.76-2.665,16.572-2.797c5.195,0.132,10.757,0.91,16.95,2.797
		c1.645,0.501,1.276,6.572,0.833,10.725c-4.29,5.274-9.124,7.603-10.961,7.682C255.408,215.382,253.52,214.525,252.779,213.892z"/>
</g>
<rect x="180.097" y="434.006" fill="#3C8EBA" width="144.894" height="2.309"/>
<path fill="#40A85E" d="M319.902,235.85h-36.065c0,17.232-13.968,31.205-31.207,31.205c-17.23,0-31.202-13.973-31.202-31.205
	h-36.065c-2.282,0-4.124,2.119-4.124,4.723l-7.4,230.128c0,2.61,1.849,4.729,4.129,4.729h149.338c2.282,0,4.119-2.118,4.119-4.729
	l-7.397-230.128C324.026,237.969,322.184,235.85,319.902,235.85z"/>
<path fill="#40A85E" d="M322.487,235.85c23.985,0.944,25.17,22.887,40.3,56.935c15.131,34.041-31.363,81.688-35.228,28.167
	C327.492,320.003,322.487,235.85,322.487,235.85z"/>
<path fill="#63BD6F" d="M252.63,267.054c-17.23,0-31.202-13.973-31.202-31.205h-7.979c-0.108,1.223-0.181,2.473-0.181,3.727
	c0,21.742,17.627,39.366,39.361,39.366c21.741,0,39.363-17.624,39.363-39.366c0-1.254-0.065-2.503-0.181-3.727h-7.976
	C283.837,253.082,269.869,267.054,252.63,267.054z"/>
<g>
	<path fill="#FFFFFF" d="M249.72,17.62c-128.07,0-231.891,103.82-231.891,231.9c0,128.07,103.82,231.89,231.891,231.89
		c128.079,0,231.899-103.819,231.899-231.89C481.62,121.44,377.8,17.62,249.72,17.62z M249.72,471.41
		c-122.351,0-221.891-99.54-221.891-221.89c0-122.36,99.54-221.9,221.891-221.9c122.359,0,221.899,99.54,221.899,221.9
		C471.62,371.87,372.08,471.41,249.72,471.41z"/>
	<path fill="none" d="M471.62,249.52c0,122.35-99.54,221.89-221.899,221.89c-122.351,0-221.891-99.54-221.891-221.89
		c0-122.36,99.54-221.9,221.891-221.9C372.08,27.62,471.62,127.16,471.62,249.52z"/>
	<path fill="#7F8C8D" d="M420.77,78.47C375.08,32.78,314.34,7.62,249.72,7.62c-64.61,0-125.351,25.16-171.04,70.851
		C32.99,124.16,7.83,184.9,7.83,249.52c0,64.61,25.16,125.36,70.851,171.04c45.689,45.689,106.43,70.851,171.04,70.851
		c64.619,0,125.359-25.159,171.049-70.851c45.689-45.68,70.851-106.43,70.851-171.04C491.62,184.9,466.461,124.16,420.77,78.47z
		 M249.72,471.41c-122.351,0-221.891-99.54-221.891-221.89c0-122.36,99.54-221.9,221.891-221.9
		c122.359,0,221.899,99.54,221.899,221.9C471.62,371.87,372.08,471.41,249.72,471.41z"/>
</g>
<g>
	<path fill="#DFE2E5" d="M223.842,303.323c47.615,11.349,54.288,16.936,67.643,21.33c0,0-5.17,2.276-7.029,8.168
		c-1.817,5.762,1.354,12.239-3.251,27.358c-4.208,13.813-8.386,20.263-10.854,23.666c-3.185,4.394-1.941,8.68-0.846,10.257
		c1.098,1.576-26.621,7.424-69.266-19.091c-1.789-1.111,1.414-2.433,3.854-7.639c2.439-5.207-0.112-9.304,6.33-29.724
		c5.676-17.988,12.42-18.528,13.734-23.956C225.469,308.266,223.842,303.323,223.842,303.323z"/>
	<path fill="#EFF2F4" d="M220.963,320.655c2.635-3.114,6.243-7.791,14.51-5.581c8.268,2.21,39.439,12.642,44.207,13.946
		c4.767,1.305,2.33,10.297,2.243,12.461c-0.086,2.163-3.645,31.891-14.567,43.015c-10.921,11.123-61.5-9.642-60.969-17.643
		C206.919,358.854,215.244,327.416,220.963,320.655z"/>
	<g>
		<path fill="#C6A280" d="M253.04,342.093c1.263-0.031,3.718-0.878,5.279-2.31c1.691-1.549,1.271-0.438,1.219-0.102
			c-0.088,0.572-1.36,3.904-5.729,5.682L253.04,342.093z"/>
		<path fill="#C6A280" d="M244.008,339.312c-1.014-0.749-2.541-2.852-2.997-4.92c-0.495-2.24-0.789-1.089-0.941-0.783
			c-0.255,0.519-1.126,3.979,1.432,7.941L244.008,339.312z"/>
		<path fill="#1E1E1C" d="M247.023,359.302c0,0,0.785-1.481,3.395-3.188c2.611-1.707,2.146-6.981,2.906-7.073
			c0.762-0.092,3.548,2.051,7.727-1.491c0,0-2.153-3.988-7.12-2.569c-4.967,1.42-6.205,5.343-6.892,7.097
			c-0.688,1.755-1.104,3.421-0.967,4.396S247.498,357.589,247.023,359.302z"/>
		<path fill="#1E1E1C" d="M238.867,356.728c0,0,0.208-1.664-0.951-4.56c-1.158-2.896,2.253-6.947,1.681-7.46
			c-0.571-0.513-4.082-0.356-5.473-5.655c0,0,4.052-2.03,7.305,1.982c3.254,4.012,2.016,7.936,1.572,9.767
			c-0.445,1.83-1.06,3.435-1.732,4.154C240.596,355.677,239.462,355.053,238.867,356.728z"/>
		<path fill="#FFFFFF" d="M253.93,344.979l-0.891-2.887c-0.883,0.055-1.504-1.141-1.983-1.823c-0.399-0.572-1.695-1.054-2.111-1.198
			v-0.002c0,0-0.022-0.007-0.066-0.02c-0.041-0.015-0.065-0.021-0.065-0.021l-0.001,0.001c-0.424-0.12-1.761-0.469-2.415-0.23
			c-0.784,0.284-1.979,0.906-2.672,0.355l-2.297,1.882c0,0,2.765,5.257,1.357,9.208c-1.408,3.948-1.829,4.017-3.671,5.632
			c-1.841,1.615-1.681,4.063-1.356,4.299c0.327,0.236,2.941,0.528,4.133,0.904l2.438-7.606l-2.369,7.628
			c1.191,0.376,3.501,1.638,3.903,1.631c0.4-0.007,1.937-1.919,1.356-4.299c-0.582-2.38-0.888-2.677,0.227-6.719
			C248.56,347.671,253.93,344.979,253.93,344.979z"/>
		<path fill="#EF7A80" d="M239.939,357.066c0,0,0.782,0.78,0.797,1.318c0.016,0.538-0.028,1.189-0.401,1.271
			c-0.373,0.082-0.947-0.631-0.835-1.195C239.611,357.896,239.939,357.066,239.939,357.066z"/>
		<path fill="#EF7A80" d="M245.978,358.971c0,0-1.089,0.19-1.41,0.622s-0.66,0.99-0.4,1.271c0.259,0.282,1.138,0.027,1.371-0.499
			C245.772,359.84,245.978,358.971,245.978,358.971z"/>
		<path fill="#EF7A80" d="M253.938,346.037c0.806-0.357,5.199-0.022,5.561,1.156s-4.084,1.973-5.466,1.072
			C252.653,347.363,253.586,346.192,253.938,346.037z"/>
		<path fill="#EF7A80" d="M240.788,341.746c-0.456-0.756-4.245-3.004-5.218-2.245c-0.972,0.758,2.214,3.96,3.859,4.014
			C241.078,343.569,240.986,342.075,240.788,341.746z"/>
		<path fill="#1E1E1C" d="M247.742,342.885c2.966,0.936,0.08,5.019-1.433,4.541C244.724,346.927,244.349,341.815,247.742,342.885z"
			/>
		<path fill="#FFFFFF" d="M238.229,360.844c0.898-0.397,2.384,0.252,3.649,0.651c1.277,0.403,3.436,0.953,3.314,1.546
			c-0.144,0.698-2.033,0.676-3.902,0.2C239.422,362.762,237.455,361.186,238.229,360.844z"/>
		<path fill="#743D1F" d="M249.179,350.883c0.012-0.462,1.025-1.141,1.529-1.049c0.504,0.094,1.15,0.363,1.199,0.845
			c0.047,0.481-0.332,0.628-0.911,0.777C250.415,351.607,249.179,350.883,249.179,350.883z"/>
		<path fill="#743D1F" d="M241.892,348.584c0.255-0.385-0.185-1.523-0.649-1.736c-0.467-0.213-1.151-0.363-1.468,0.003
			c-0.313,0.368-0.089,0.705,0.301,1.16C240.464,348.468,241.892,348.584,241.892,348.584z"/>
		<circle fill="#1E1E1C" cx="240.807" cy="347.454" r="0.603"/>
		<circle fill="#1E1E1C" cx="250.768" cy="350.597" r="0.604"/>
	</g>
</g>
<path fill="#D2B199" d="M174.102,340.216l-28.239-19.053c0,0,3.109,55.216,6.648,63.432c3.539,8.217,93.002,7.274,93.002,7.274
	l-3.57-18.116c0,0-66.066-0.447-67.841-13.559C172.328,347.084,174.102,340.216,174.102,340.216z"/>
<path fill="#40A85E" d="M183.472,235.85c-23.982,0.944-23.819,20.988-41.037,53.981c-9.86,18.896,3.171,41.032,14.428,49.41
	c23.164,17.234,21.542-19.864,21.542-19.224C178.405,320.952,183.472,235.85,183.472,235.85z"/>
<path fill="#D2B199" d="M242.75,369.75c8.856-5.672,29.196-5.453,36.5,1.25c7.304,6.699-12.509,23.788-28,22.5
	C235.758,392.208,235.255,374.55,242.75,369.75z"/>
</svg>
